<svg width="44" height="18" viewBox="0 0 44 18" fill="none" xmlns="http://www.w3.org/2000/svg">
<path d="M34.9966 0.9375C35.7835 0.9375 36.4034 1.5319 36.7992 2.33394L38.1207 4.99887C38.1608 5.08135 38.2558 5.19749 38.3986 5.30373C38.5412 5.40986 38.6809 5.46841 38.7728 5.48385L41.1651 5.88459C42.0292 6.0298 42.7534 6.45337 42.9886 7.19093C43.2235 7.92787 42.8793 8.6937 42.2579 9.31623L42.2573 9.31684L40.3988 11.1906C40.3252 11.2649 40.2427 11.4048 40.1909 11.5871C40.1395 11.7681 40.135 11.933 40.1583 12.0396L40.1586 12.041L40.6903 14.359C40.9108 15.3238 40.8378 16.2805 40.1573 16.7806C39.4746 17.2825 38.5415 17.06 37.6939 16.5552L35.4514 15.2168C35.3573 15.1605 35.1955 15.1149 35.0003 15.1149C34.8066 15.1149 34.6414 15.1599 34.5411 15.2182L34.5397 15.2191L32.3017 16.5549C31.455 17.0615 30.5232 17.28 29.8403 16.7777C29.1604 16.2774 29.0836 15.3225 29.3048 14.3585L29.8364 12.041L29.8368 12.0396C29.8601 11.933 29.8555 11.7681 29.8041 11.5871C29.7524 11.4048 29.6699 11.2649 29.5962 11.1906L27.7364 9.31548C27.119 8.69297 26.7759 7.9278 27.009 7.19194C27.2427 6.45393 27.9656 6.02985 28.8303 5.88455L31.2205 5.48414L31.2213 5.48401C31.3089 5.46881 31.4465 5.41092 31.5889 5.30451C31.7315 5.19791 31.8267 5.08152 31.8669 4.99887L31.8689 4.99475L33.1887 2.33323L33.1892 2.33218C33.5887 1.53081 34.2105 0.9375 34.9966 0.9375Z" fill="#FFCC00"/>
</svg>
