<svg width="122" height="18" viewBox="0 0 122 18" fill="none" xmlns="http://www.w3.org/2000/svg">
<path d="M8.99659 0.9375C9.78354 0.9375 10.4034 1.5319 10.7992 2.33394L12.1207 4.99887C12.1608 5.08135 12.2558 5.19749 12.3986 5.30373C12.5412 5.40986 12.6809 5.46841 12.7728 5.48385L15.1651 5.88459C16.0292 6.0298 16.7534 6.45337 16.9886 7.19093C17.2235 7.92787 16.8793 8.6937 16.2579 9.31623L16.2573 9.31684L14.3988 11.1906C14.3252 11.2649 14.2427 11.4048 14.1909 11.5871C14.1395 11.7681 14.135 11.933 14.1583 12.0396L14.1586 12.041L14.6903 14.359C14.9108 15.3238 14.8378 16.2805 14.1573 16.7806C13.4746 17.2825 12.5415 17.06 11.6939 16.5552L9.45143 15.2168C9.35726 15.1605 9.19553 15.1149 9.00033 15.1149C8.80656 15.1149 8.64144 15.1599 8.54114 15.2182L8.53972 15.2191L6.30167 16.5549C5.45505 17.0615 4.52317 17.28 3.84034 16.7777C3.16038 16.2774 3.08362 15.3225 3.30484 14.3585L3.83644 12.041L3.83676 12.0396C3.86007 11.933 3.85551 11.7681 3.80411 11.5871C3.75236 11.4048 3.66985 11.2649 3.59619 11.1906L1.7364 9.31548C1.119 8.69297 0.775917 7.9278 1.00897 7.19194C1.24271 6.45393 1.96558 6.02985 2.83026 5.88455L5.2205 5.48414L5.22126 5.48401C5.30889 5.46881 5.44654 5.41092 5.58887 5.30451C5.73147 5.19791 5.8267 5.08152 5.86685 4.99887L5.86887 4.99475L7.18873 2.33323L7.18925 2.33218C7.58873 1.53081 8.21054 0.9375 8.99659 0.9375Z" fill="#FFCC00"/>
<path d="M34.9966 0.9375C35.7835 0.9375 36.4034 1.5319 36.7992 2.33394L38.1207 4.99887C38.1608 5.08135 38.2558 5.19749 38.3986 5.30373C38.5412 5.40986 38.6809 5.46841 38.7728 5.48385L41.1651 5.88459C42.0292 6.0298 42.7534 6.45337 42.9886 7.19093C43.2235 7.92787 42.8793 8.6937 42.2579 9.31623L42.2573 9.31684L40.3988 11.1906C40.3252 11.2649 40.2427 11.4048 40.1909 11.5871C40.1395 11.7681 40.135 11.933 40.1583 12.0396L40.1586 12.041L40.6903 14.359C40.9108 15.3238 40.8378 16.2805 40.1573 16.7806C39.4746 17.2825 38.5415 17.06 37.6939 16.5552L35.4514 15.2168C35.3573 15.1605 35.1955 15.1149 35.0003 15.1149C34.8066 15.1149 34.6414 15.1599 34.5411 15.2182L34.5397 15.2191L32.3017 16.5549C31.455 17.0615 30.5232 17.28 29.8403 16.7777C29.1604 16.2774 29.0836 15.3225 29.3048 14.3585L29.8364 12.041L29.8368 12.0396C29.8601 11.933 29.8555 11.7681 29.8041 11.5871C29.7524 11.4048 29.6699 11.2649 29.5962 11.1906L27.7364 9.31548C27.119 8.69297 26.7759 7.9278 27.009 7.19194C27.2427 6.45393 27.9656 6.02985 28.8303 5.88455L31.2205 5.48414L31.2213 5.48401C31.3089 5.46881 31.4465 5.41092 31.5889 5.30451C31.7315 5.19791 31.8267 5.08152 31.8669 4.99887L31.8689 4.99475L33.1887 2.33323L33.1892 2.33218C33.5887 1.53081 34.2105 0.9375 34.9966 0.9375Z" fill="#FFCC00"/>
<path d="M60.9966 0.9375C61.7835 0.9375 62.4034 1.5319 62.7992 2.33394L64.1207 4.99887C64.1608 5.08135 64.2558 5.19749 64.3986 5.30373C64.5412 5.40986 64.6809 5.46841 64.7728 5.48385L67.1651 5.88459C68.0292 6.0298 68.7534 6.45337 68.9886 7.19093C69.2235 7.92787 68.8793 8.6937 68.2579 9.31623L68.2573 9.31684L66.3988 11.1906C66.3252 11.2649 66.2427 11.4048 66.1909 11.5871C66.1395 11.7681 66.135 11.933 66.1583 12.0396L66.1586 12.041L66.6903 14.359C66.9108 15.3238 66.8378 16.2805 66.1573 16.7806C65.4746 17.2825 64.5415 17.06 63.6939 16.5552L61.4514 15.2168C61.3573 15.1605 61.1955 15.1149 61.0003 15.1149C60.8066 15.1149 60.6414 15.1599 60.5411 15.2182L60.5397 15.2191L58.3017 16.5549C57.455 17.0615 56.5232 17.28 55.8403 16.7777C55.1604 16.2774 55.0836 15.3225 55.3048 14.3585L55.8364 12.041L55.8368 12.0396C55.8601 11.933 55.8555 11.7681 55.8041 11.5871C55.7524 11.4048 55.6699 11.2649 55.5962 11.1906L53.7364 9.31548C53.119 8.69297 52.7759 7.9278 53.009 7.19194C53.2427 6.45393 53.9656 6.02985 54.8303 5.88455L57.2205 5.48414L57.2213 5.48401C57.3089 5.46881 57.4465 5.41092 57.5889 5.30451C57.7315 5.19791 57.8267 5.08152 57.8669 4.99887L57.8689 4.99475L59.1887 2.33323L59.1892 2.33218C59.5887 1.53081 60.2105 0.9375 60.9966 0.9375Z" fill="#FFCC00"/>
<path d="M86.9966 0.9375C87.7835 0.9375 88.4034 1.5319 88.7992 2.33394L90.1207 4.99887C90.1608 5.08135 90.2558 5.19749 90.3986 5.30373C90.5412 5.40986 90.6809 5.46841 90.7728 5.48385L93.1651 5.88459C94.0292 6.0298 94.7534 6.45337 94.9886 7.19093C95.2235 7.92787 94.8793 8.6937 94.2579 9.31623L94.2573 9.31684L92.3988 11.1906C92.3252 11.2649 92.2427 11.4048 92.1909 11.5871C92.1395 11.7681 92.135 11.933 92.1583 12.0396L92.1586 12.041L92.6903 14.359C92.9108 15.3238 92.8378 16.2805 92.1573 16.7806C91.4746 17.2825 90.5415 17.06 89.6939 16.5552L87.4514 15.2168C87.3573 15.1605 87.1955 15.1149 87.0003 15.1149C86.8066 15.1149 86.6414 15.1599 86.5411 15.2182L86.5397 15.2191L84.3017 16.5549C83.455 17.0615 82.5232 17.28 81.8403 16.7777C81.1604 16.2774 81.0836 15.3225 81.3048 14.3585L81.8364 12.041L81.8368 12.0396C81.8601 11.933 81.8555 11.7681 81.8041 11.5871C81.7524 11.4048 81.6699 11.2649 81.5962 11.1906L79.7364 9.31548C79.119 8.69297 78.7759 7.9278 79.009 7.19194C79.2427 6.45393 79.9656 6.02985 80.8303 5.88455L83.2205 5.48414L83.2213 5.48401C83.3089 5.46881 83.4465 5.41092 83.5889 5.30451C83.7315 5.19791 83.8267 5.08152 83.8669 4.99887L83.8689 4.99475L85.1887 2.33323L85.1892 2.33218C85.5887 1.53081 86.2105 0.9375 86.9966 0.9375Z" fill="#FFCC00"/>
<path d="M112.997 0.9375C113.784 0.9375 114.403 1.5319 114.799 2.33394L116.121 4.99887C116.161 5.08135 116.256 5.19749 116.399 5.30373C116.541 5.40986 116.681 5.46841 116.773 5.48385L119.165 5.88459C120.029 6.0298 120.753 6.45337 120.989 7.19093C121.223 7.92787 120.879 8.6937 120.258 9.31623L120.257 9.31684L118.399 11.1906C118.325 11.2649 118.243 11.4048 118.191 11.5871C118.14 11.7681 118.135 11.933 118.158 12.0396L118.159 12.041L118.69 14.359C118.911 15.3238 118.838 16.2805 118.157 16.7806C117.475 17.2825 116.542 17.06 115.694 16.5552L113.451 15.2168C113.357 15.1605 113.196 15.1149 113 15.1149C112.807 15.1149 112.641 15.1599 112.541 15.2182L112.54 15.2191L110.302 16.5549C109.455 17.0615 108.523 17.28 107.84 16.7777C107.16 16.2774 107.084 15.3225 107.305 14.3585L107.836 12.041L107.837 12.0396C107.86 11.933 107.856 11.7681 107.804 11.5871C107.752 11.4048 107.67 11.2649 107.596 11.1906L105.736 9.31548C105.119 8.69297 104.776 7.9278 105.009 7.19194C105.243 6.45393 105.966 6.02985 106.83 5.88455L109.221 5.48414L109.221 5.48401C109.309 5.46881 109.447 5.41092 109.589 5.30451C109.731 5.19791 109.827 5.08152 109.867 4.99887L109.869 4.99475L111.189 2.33323L111.189 2.33218C111.589 1.53081 112.211 0.9375 112.997 0.9375Z" fill="#FFCC00"/>
</svg>
