<svg width="16" height="16" viewBox="0 0 16 16" fill="none" xmlns="http://www.w3.org/2000/svg">
<path d="M7.99992 14.6666C11.6818 14.6666 14.6666 11.6819 14.6666 7.99998C14.6666 4.31808 11.6818 1.33331 7.99992 1.33331C4.31802 1.33331 1.33325 4.31808 1.33325 7.99998C1.33325 11.6819 4.31802 14.6666 7.99992 14.6666Z" stroke="#292D32" stroke-linecap="round" stroke-linejoin="round"/>
<path d="M5.33324 2H5.9999C4.6999 5.89333 4.6999 10.1067 5.9999 14H5.33324" stroke="#292D32" stroke-linecap="round" stroke-linejoin="round"/>
<path d="M10 2C11.3 5.89333 11.3 10.1067 10 14" stroke="#292D32" stroke-linecap="round" stroke-linejoin="round"/>
<path d="M2 10.6667V10C5.89333 11.3 10.1067 11.3 14 10V10.6667" stroke="#292D32" stroke-linecap="round" stroke-linejoin="round"/>
<path d="M2 6.00002C5.89333 4.70002 10.1067 4.70002 14 6.00002" stroke="#292D32" stroke-linecap="round" stroke-linejoin="round"/>
</svg>
