<svg width="103" height="59" viewBox="0 0 103 59" fill="none" xmlns="http://www.w3.org/2000/svg">
<path d="M70.4902 53.1052L71.4824 58.4163C74.7837 57.5191 77.7955 55.7803 80.2232 53.37C82.6509 50.9597 84.4113 47.9604 85.3322 44.6657C88.5481 33.2321 87.0832 24.6584 87.0832 24.6584C87.0832 24.6584 86.0968 36.6348 84.8595 39.2495C83.6222 41.8642 81.2526 50.5196 70.4902 53.1052Z" fill="#56744E"/>
<path d="M76.7522 1.48761C76.7522 1.48761 69.1649 23.4559 85.7578 23.666C85.7578 23.666 99.8061 14.0884 77.2892 1.48761" fill="#8174A0"/>
<path d="M87.4743 24.7574C87.5376 24.7022 87.598 24.6438 87.6552 24.5823C88.7817 23.415 94.5772 16.7265 86.7798 7.76173C86.7798 7.76173 93.4275 1.43505 94.9508 1.86111C96.4741 2.28717 101.709 22.8722 88.0871 24.8099" fill="#8174A0"/>
<path d="M93.1067 3.81061C93.1067 3.81061 101.809 9.37855 91.0698 22.2829C91.0698 22.2829 97.5482 13.0438 93.1067 4.07908" fill="#5A5170"/>
<path d="M83.0596 23.0651C83.0596 23.0651 72.7777 22.0598 76.4797 5.68468C76.4797 5.68468 74.9073 16.8587 82.9376 22.8259" fill="#B6AEC8"/>
<path d="M86.3848 7.61534L89.9275 4.82553C89.9275 4.82553 89.8166 3.54152 86.7058 0.00464986C86.7058 0.00464986 85.7428 -0.32219 82.8479 4.50453" fill="#8174A0"/>
<path d="M83.1868 4.17733C83.1868 4.17733 85.9999 -0.106602 86.5661 0.1502L85.5505 6.24926" fill="#B6AEC8"/>
<path d="M89.3205 4.39385C89.3205 4.47556 89.3205 4.34716 89.2738 4.3063C89.2547 4.26428 89.2333 4.22336 89.2096 4.18374C89.1396 4.05534 89.0695 3.93277 89.0053 3.80437C88.9849 3.77169 88.9692 3.73633 88.9586 3.69931C88.8983 3.60716 88.8566 3.50404 88.8361 3.39582L86.3848 0.139099L87.3069 6.24983L89.4197 4.63898C89.3756 4.56219 89.3422 4.47971 89.3205 4.39385Z" fill="#5A5170"/>
<path d="M60.8801 19.7656C60.8801 19.7656 66.7365 24.3113 68.4663 35.4414C68.4663 35.4414 71.0352 44.5608 78.944 48.3621C78.944 48.3621 77.8609 34.0982 74.1577 31.1239C74.1577 31.1239 80.2239 35.1571 81.4729 47.9519C81.4729 47.9519 91.6515 25.9001 61.5471 19.8683" fill="#56744E"/>
<path d="M81.8193 45.294C81.8193 45.294 82.4938 27.5709 68.2819 24.2527C68.2819 24.2527 76.3908 30.1233 79.0836 36.6546" fill="#4E8354"/>
<path d="M78.147 47.3687C78.147 47.3687 69.928 41.8596 69.5391 33.2463C69.5391 33.2463 77.5254 47.7117 78.3648 47.4316L78.147 47.3687Z" fill="#48673D"/>
<path d="M84.1833 47.6744C84.1833 47.6744 89.8972 39.4275 92.08 38.8206L92.2668 38.7855C92.2668 38.7855 87.014 44.0383 86.0685 50.6393V51.042C86.0685 51.042 97.3853 45.5208 99.2705 39.591C100.975 34.2331 102.019 28.8695 103 28.0991C100.724 28.3734 88.3155 29.85 84.1833 47.6744Z" fill="#56744E"/>
<path d="M86.6926 42.0772C86.6926 42.0772 91.1575 32.0036 99.7311 30.5328C99.7311 30.5328 87.1011 40.9916 86.5583 43.3029" fill="#4E8354"/>
<path d="M86.5583 50.4991C86.5583 50.4991 96.2001 44.6569 98.5113 38.4236C98.5113 38.4236 87.1011 50.645 86.5583 49.8338" fill="#48673D"/>
<path d="M72.0544 57.8029C72.0544 57.8029 80.0678 54.8147 82.7876 48.9724L72.0544 57.8029Z" fill="#48673D"/>
<path d="M85.2735 39.9435C85.2735 39.9435 78.5675 55.8711 70.8342 55.0715C70.8342 55.0715 78.2815 50.1689 80.5694 47.5834" fill="#4E8354"/>
<path d="M12.1377 34.4843C10.178 34.4843 8.62525 33.9642 7.47954 32.9241C6.33384 31.8839 5.76099 30.4065 5.76099 28.492C5.76099 26.8639 6.16801 25.4242 6.98207 24.173C7.8112 22.9217 8.90414 21.9569 10.2609 21.2786C11.6177 20.6002 13.0799 20.261 14.6477 20.261C15.9442 20.261 17.0296 20.4796 17.904 20.9168C18.7783 21.3539 19.3889 21.8665 19.7356 22.4544L18.017 32.11L16.4567 34.4843H12.1377ZM16.0045 22.4092L16.1628 23.9016C16.1025 23.7056 15.9442 23.57 15.6879 23.4946C15.4316 23.4041 15.0849 23.3589 14.6477 23.3589C13.6226 23.3589 12.7181 23.5775 11.9342 24.0147C11.1654 24.4368 10.5624 25.0473 10.1252 25.8463C9.68804 26.6453 9.46945 27.5799 9.46945 28.6503C9.46945 29.6301 9.67297 30.3311 10.08 30.7532C10.487 31.1753 11.1729 31.3864 12.1377 31.3864H14.8513L14.399 31.5899L16.0045 22.4092ZM16.4115 18.2032C15.8688 18.2032 15.4316 18.0676 15.1 17.7962C14.7834 17.5098 14.6251 17.1329 14.6251 16.6656C14.6251 15.9872 14.8513 15.437 15.3035 15.0149C15.7558 14.5928 16.3362 14.3817 17.0447 14.3817C17.5874 14.3817 18.017 14.5249 18.3336 14.8114C18.6652 15.0978 18.8311 15.4747 18.8311 15.942C18.8311 16.6053 18.6049 17.148 18.1527 17.5701C17.7004 17.9922 17.1201 18.2032 16.4115 18.2032ZM11.8438 18.2032C11.3011 18.2032 10.8714 18.0676 10.5549 17.7962C10.2383 17.5098 10.08 17.1329 10.08 16.6656C10.08 15.9872 10.3061 15.437 10.7584 15.0149C11.2106 14.5928 11.791 14.3817 12.4995 14.3817C13.0422 14.3817 13.4719 14.5249 13.7885 14.8114C14.1201 15.0978 14.2859 15.4747 14.2859 15.942C14.2859 16.6053 14.0523 17.148 13.5849 17.5701C13.1327 17.9922 12.5523 18.2032 11.8438 18.2032Z" fill="#5A5170"/>
<path d="M24.2346 34.4843C23.1341 34.4843 22.2975 34.2657 21.7246 33.8286C21.1518 33.3763 20.8653 32.713 20.8653 31.8386C20.8653 31.3864 20.9407 30.9794 21.0915 30.6176C21.6794 30.8588 22.2145 31.0472 22.6969 31.1829C23.1793 31.3186 23.6467 31.3864 24.0989 31.3864H30.9279L29.5033 32.3587C29.4883 32.0271 29.5184 31.6427 29.5938 31.2055C29.6842 30.7532 29.8048 30.1804 29.9556 29.4869C30.1214 28.7181 30.242 28.1 30.3174 27.6327C30.4078 27.1503 30.4531 26.7131 30.4531 26.3212C30.4531 25.3413 30.1893 24.5951 29.6616 24.0825C29.134 23.57 28.4481 23.3137 27.6039 23.3137C26.7597 23.3137 26.1039 23.5775 25.6366 24.1051C25.1693 24.6328 24.9054 25.4091 24.8451 26.4342C22.9155 26.4342 21.9507 25.7182 21.9507 24.286C21.9507 23.5624 22.1769 22.8916 22.6291 22.2735C23.0964 21.6554 23.7522 21.158 24.5964 20.7811C25.4557 20.4042 26.4506 20.2158 27.5813 20.2158C28.9079 20.2158 30.0611 20.472 31.041 20.9846C32.036 21.4971 32.7972 22.2208 33.3249 23.1554C33.8676 24.075 34.1389 25.1302 34.1389 26.3212C34.1389 26.894 34.0862 27.4895 33.9806 28.1076C33.8751 28.7256 33.7244 29.4643 33.5284 30.3236C33.4379 30.7306 33.355 31.1075 33.2796 31.4542C33.2193 31.801 33.1967 32.0572 33.2118 32.2231L31.7872 34.4843H24.2346Z" fill="#5A5170"/>
<path d="M36.4947 42.1726C35.1982 42.1726 34.1958 41.9465 33.4872 41.4942C32.7636 41.0571 32.4018 40.4917 32.4018 39.7983C33.9998 39.7983 35.2736 39.5722 36.2233 39.1199C37.1731 38.6827 37.8891 38.042 38.3715 37.1978C38.8539 36.3687 39.2308 35.2532 39.5022 33.8512C39.5474 33.6401 39.5851 33.4215 39.6152 33.1954C39.6605 32.9542 39.7057 32.7055 39.7509 32.4492C40.0524 30.7608 40.4444 28.2885 40.9268 25.0323L41.0624 26.5021L39.6831 23.3137C40.3765 22.8464 41.0021 22.4996 41.5599 22.2735C42.1177 22.0474 42.6303 21.9343 43.0976 21.9343C43.6403 21.9343 44.0699 22.07 44.3865 22.3414C44.7031 22.5976 44.8614 22.9368 44.8614 23.3589C44.8614 23.5549 44.7634 24.271 44.5674 25.5071C44.3865 26.7433 44.1378 28.3638 43.8212 30.3688L43.5272 32.2004C43.1503 34.6125 42.6755 36.5421 42.1026 37.9893C41.5298 39.4365 40.7911 40.4917 39.8866 41.155C38.9972 41.8334 37.8665 42.1726 36.4947 42.1726Z" fill="#5A5170"/>
<path d="M52.4615 42.1726C51.1047 42.1726 50.0646 41.954 49.341 41.5168C48.6174 41.0797 48.2556 40.5068 48.2556 39.7983C49.9289 39.7983 51.2178 39.5872 52.1223 39.1651C53.0419 38.7581 53.7203 38.14 54.1574 37.3109C54.6097 36.4968 54.9941 35.3436 55.3107 33.8512C55.5519 32.7959 55.8232 31.3487 56.1247 29.5095C56.4262 27.6553 56.7051 25.8765 56.9614 24.173L57.1423 22.8841L57.2328 23.9921C56.9614 23.8262 56.6147 23.6755 56.1926 23.5398C55.7705 23.4041 55.3258 23.3363 54.8584 23.3363C53.9992 23.3363 53.2454 23.585 52.5972 24.0825C51.9489 24.58 51.4515 25.2508 51.1047 26.095C50.758 26.9242 50.5847 27.8438 50.5847 28.8538C50.5847 29.7734 50.758 30.4291 51.1047 30.8211C51.4515 31.198 52.0168 31.3864 52.8007 31.3864H56.2378V34.4843H52.5972C50.6826 34.4843 49.2505 34.017 48.3008 33.0823C47.3661 32.1477 46.8988 30.7532 46.8988 28.899C46.8988 27.286 47.2304 25.8237 47.8937 24.5122C48.5721 23.1856 49.5143 22.1378 50.7203 21.369C51.9263 20.6002 53.3208 20.2158 54.9037 20.2158C55.9589 20.2158 56.9011 20.3816 57.7302 20.7132C58.5594 21.0298 59.2227 21.3992 59.7201 21.8213C60.2327 22.2283 60.5719 22.575 60.7377 22.8614C60.7377 23.1177 60.5945 24.271 60.3081 26.3212C60.0216 28.3563 59.7126 30.3161 59.381 32.2004C58.9287 34.718 58.4388 36.6777 57.9111 38.0797C57.3835 39.4817 56.6976 40.5144 55.8534 41.1777C55.0092 41.841 53.8786 42.1726 52.4615 42.1726Z" fill="#5A5170"/>
<path d="M1.50635 55.1755C0.969928 55.1755 0.583204 55.0485 0.34618 54.7943C0.115393 54.5338 0 54.1144 0 53.5362C0 53.3266 0.012475 53.1328 0.0374249 52.9549C0.0623748 52.7706 0.0997997 52.5514 0.1497 52.2972C0.193362 52.0685 0.224549 51.8747 0.243262 51.7158C0.268212 51.557 0.280687 51.3886 0.280687 51.2107C0.280687 50.9693 0.252618 50.7278 0.196481 50.4864C0.414792 50.3466 0.608154 50.2767 0.776566 50.2767C0.926266 50.2767 1.03542 50.3275 1.10403 50.4292C1.17265 50.5245 1.20695 50.6833 1.20695 50.9057C1.20695 51.0582 1.19136 51.2298 1.16017 51.4204C1.13522 51.6047 1.09468 51.8207 1.03854 52.0685C0.96369 52.4497 0.910672 52.7484 0.879484 52.9644C0.848297 53.1804 0.832703 53.406 0.832703 53.6411C0.832703 53.8508 0.851416 54.0064 0.888841 54.1081C0.932503 54.2098 0.997997 54.2796 1.08532 54.3178C1.17888 54.3495 1.31923 54.3654 1.50635 54.3654H6.56807L6.49322 54.556C6.49322 54.0096 6.57118 53.3424 6.72712 52.5546C6.88306 51.7667 7.03588 51.0932 7.18558 50.534C7.19805 50.4959 7.20741 50.461 7.21364 50.4292C7.21988 50.3974 7.22612 50.372 7.23236 50.3529L7.30721 50.7818L6.73648 50.21C6.85499 50.1083 6.99533 50.0289 7.15751 49.9717C7.31968 49.9145 7.47562 49.8859 7.62532 49.8859C7.78125 49.8859 7.89353 49.924 7.96214 50.0003C8.03075 50.0702 8.06506 50.1909 8.06506 50.3625C8.05882 50.3879 8.04635 50.4355 8.02764 50.5054C8.01516 50.569 7.99957 50.6516 7.98085 50.7532C7.8062 51.4966 7.65339 52.1987 7.5224 52.8595C7.39141 53.5204 7.32592 54.0858 7.32592 54.556L6.94231 55.1755H1.50635ZM3.09691 57.0627C2.94097 57.0627 2.8131 57.0213 2.7133 56.9387C2.61974 56.8561 2.57296 56.7481 2.57296 56.6147C2.57296 56.4114 2.63845 56.2462 2.76944 56.1191C2.90043 55.9984 3.07196 55.938 3.28403 55.938C3.43997 55.938 3.56472 55.9793 3.65828 56.0619C3.75808 56.1509 3.80798 56.2652 3.80798 56.405C3.80798 56.602 3.74249 56.7608 3.6115 56.8816C3.48051 57.0023 3.30898 57.0627 3.09691 57.0627Z" fill="#3C3C3C"/>
<path d="M13.0309 54.3654H14.5934L14.4624 55.1755H12.8344L13.0309 54.3654ZM10.3176 58.416C9.97451 58.416 9.73125 58.3557 9.58778 58.2349C9.45056 58.1206 9.38195 57.9903 9.38195 57.8442C10.0244 57.8442 10.5109 57.752 10.8415 57.5678C11.1721 57.3899 11.4466 57.0277 11.6649 56.4813C11.8832 55.9412 12.1015 55.0771 12.3198 53.8889C12.4196 53.3297 12.5163 52.7293 12.6098 52.0875C12.7096 51.4395 12.7938 50.874 12.8625 50.3911L12.928 49.9336L13.0589 50.3148C12.9404 50.2322 12.7845 50.1528 12.5911 50.0765C12.3978 50.0003 12.1795 49.9622 11.9362 49.9622C11.5619 49.9622 11.2064 50.0702 10.8696 50.2862C10.539 50.4959 10.2677 50.8104 10.0556 51.2298C9.84976 51.6491 9.74684 52.1511 9.74684 52.7356C9.74684 53.3329 9.85911 53.7554 10.0837 54.0032C10.3082 54.2447 10.6388 54.3654 11.0754 54.3654H12.4601V55.1755H11.0754C10.3768 55.1755 9.8404 54.9659 9.46615 54.5465C9.09814 54.1272 8.91414 53.5204 8.91414 52.7261C8.91414 52.0526 9.042 51.4458 9.29774 50.9057C9.55972 50.3593 9.92149 49.9304 10.3831 49.6191C10.8446 49.3077 11.3623 49.152 11.9362 49.152C12.2481 49.152 12.5256 49.1965 12.7689 49.2855C13.0122 49.3681 13.2118 49.4666 13.3677 49.5809C13.5299 49.689 13.6515 49.797 13.7326 49.905C13.7326 49.9939 13.6671 50.5023 13.5361 51.4299C13.4051 52.3576 13.2741 53.2185 13.1431 54.0128C12.9934 54.9087 12.8219 55.6616 12.6286 56.2716C12.4414 56.8879 12.1607 57.3994 11.7865 57.8061C11.4185 58.2127 10.9288 58.416 10.3176 58.416ZM14.5934 54.3654C14.6495 54.3654 14.6838 54.3972 14.6963 54.4607C14.7088 54.5243 14.7056 54.6259 14.6869 54.7657C14.662 54.9055 14.6308 55.0072 14.5934 55.0707C14.5622 55.1406 14.5185 55.1755 14.4624 55.1755L14.5934 54.3654Z" fill="#3C3C3C"/>
<path d="M17.3087 55.1755C17.0966 55.1755 16.9189 55.1152 16.7754 54.9945C16.6382 54.8801 16.5353 54.7212 16.4667 54.5179L16.7848 54.6799H15.9708L16.7473 52.2877L16.7286 52.4211C16.7037 52.5863 16.6818 52.7484 16.6631 52.9072C16.6444 53.0597 16.6351 53.1836 16.6351 53.2789C16.6351 53.603 16.7193 53.8666 16.8877 54.07C17.0561 54.2669 17.29 54.3654 17.5894 54.3654H18.0291L17.8982 55.1755H17.3087ZM14.6048 54.3654H15.9146L15.6527 54.4417C15.6714 54.1367 15.74 53.5744 15.8585 52.7547C15.977 51.9287 16.1205 50.9915 16.2889 49.9431C16.345 49.6127 16.398 49.2982 16.4479 48.9996C16.5041 48.6946 16.5571 48.415 16.607 48.1608L16.7473 48.4754L16.1953 47.8844C16.3014 47.7891 16.4417 47.7097 16.6164 47.6462C16.791 47.5826 16.9501 47.5509 17.0935 47.5509C17.2307 47.5509 17.3337 47.5826 17.4023 47.6462C17.4771 47.7097 17.5145 47.8082 17.5145 47.9416C17.5145 48.0433 17.4865 48.2498 17.4303 48.5611C17.3742 48.8661 17.3087 49.2029 17.2339 49.5714C17.0155 50.7024 16.844 51.6587 16.7193 52.4402C16.6008 53.2217 16.5415 53.927 16.5415 54.556L16.1485 55.1755H14.4738L14.6048 54.3654ZM14.4738 55.1755C14.4176 55.1755 14.3833 55.1438 14.3709 55.0802C14.3584 55.0167 14.3615 54.915 14.3802 54.7752C14.4052 54.6355 14.4364 54.5338 14.4738 54.4703C14.505 54.4004 14.5486 54.3654 14.6048 54.3654L14.4738 55.1755ZM18.0291 54.3654C18.0853 54.3654 18.1196 54.3972 18.1321 54.4607C18.1445 54.5243 18.1414 54.6259 18.1227 54.7657C18.0978 54.9055 18.0666 55.0072 18.0291 55.0707C17.998 55.1406 17.9543 55.1755 17.8982 55.1755L18.0291 54.3654Z" fill="#3C3C3C"/>
<path d="M18.0402 54.3654H19.4063L19.1536 54.6228V54.3559C19.1536 54.2415 19.1724 54.0731 19.2098 53.8508C19.2534 53.622 19.3002 53.3837 19.3501 53.1359C19.4374 52.7293 19.5061 52.3735 19.556 52.0685C19.6121 51.7571 19.6402 51.4839 19.6402 51.2488C19.6402 51.1281 19.6308 51.0106 19.6121 50.8962C19.5996 50.7755 19.5809 50.6611 19.556 50.5531C19.6558 50.4895 19.7556 50.4387 19.8554 50.4006C19.9552 50.3625 20.0487 50.3434 20.136 50.3434C20.2857 50.3434 20.3949 50.3974 20.4635 50.5054C20.5384 50.6071 20.5758 50.7628 20.5758 50.9724C20.5758 51.1122 20.5602 51.2615 20.529 51.4204C20.5041 51.5792 20.4635 51.7826 20.4074 52.0304C20.345 52.329 20.2982 52.5609 20.267 52.7261C20.2421 52.885 20.2296 53.047 20.2296 53.2122C20.2296 53.5744 20.3138 53.8571 20.4822 54.0604C20.6506 54.2638 20.8877 54.3654 21.1933 54.3654H22.3254L22.0728 54.6228V54.3559C22.0728 54.2415 22.0946 54.0636 22.1383 53.8222C22.1819 53.5744 22.2318 53.317 22.288 53.0502C22.3815 52.5863 22.4533 52.1956 22.5032 51.8779C22.5593 51.5602 22.5874 51.287 22.5874 51.0582C22.5874 50.9438 22.578 50.8295 22.5593 50.7151C22.5468 50.5944 22.5281 50.48 22.5032 50.372C22.603 50.3085 22.7028 50.2576 22.8026 50.2195C22.9024 50.1814 22.9959 50.1623 23.0833 50.1623C23.233 50.1623 23.3421 50.2163 23.4107 50.3243C23.4856 50.426 23.523 50.5785 23.523 50.7818C23.523 50.928 23.5074 51.0932 23.4762 51.2774C23.445 51.4617 23.4014 51.6809 23.3452 51.9351C23.2766 52.2655 23.2267 52.5228 23.1955 52.7071C23.1643 52.885 23.1487 53.0565 23.1487 53.2217C23.1487 53.5839 23.233 53.8666 23.4014 54.07C23.5698 54.2669 23.8068 54.3654 24.1124 54.3654H25.2539L25.0106 54.6228V54.3559C25.0106 54.2415 25.0325 54.0541 25.0761 53.7936C25.126 53.5267 25.1822 53.2471 25.2445 52.9549C25.3568 52.3639 25.4379 51.9128 25.4878 51.6015C25.5439 51.2901 25.572 51.0169 25.572 50.7818C25.572 50.6675 25.5626 50.5531 25.5439 50.4387C25.5315 50.318 25.5127 50.2036 25.4878 50.0956C25.5876 50.0321 25.6874 49.9812 25.7872 49.9431C25.887 49.905 25.9806 49.8859 26.0679 49.8859C26.2176 49.8859 26.3267 49.9368 26.3954 50.0384C26.4702 50.1401 26.5076 50.2894 26.5076 50.4864C26.5076 50.6389 26.4858 50.8327 26.4421 51.0677C26.4047 51.2965 26.3455 51.6047 26.2644 51.9922C26.1459 52.5641 26.0554 53.047 25.993 53.4409C25.9307 53.8349 25.8995 54.2066 25.8995 54.556L25.5065 55.1755H23.7195C23.5074 55.1755 23.3296 55.1152 23.1862 54.9945C23.0489 54.8801 22.946 54.7212 22.8774 54.5179L23.13 54.6799H22.8868L22.5687 55.1755H20.8003C20.5883 55.1755 20.4105 55.1152 20.267 54.9945C20.1298 54.8801 20.0269 54.7212 19.9583 54.5179L20.2109 54.6799H19.9676L19.6495 55.1755H17.9093L18.0402 54.3654ZM17.9093 55.1755C17.8531 55.1755 17.8188 55.1438 17.8063 55.0802C17.7939 55.0167 17.797 54.915 17.8157 54.7752C17.8407 54.6355 17.8718 54.5338 17.9093 54.4703C17.9404 54.4004 17.9841 54.3654 18.0402 54.3654L17.9093 55.1755Z" fill="#3C3C3C"/>
<path d="M29.316 55.1755C29.0166 55.1755 28.7109 55.1247 28.399 55.023C28.0934 54.9277 27.8533 54.8165 27.6786 54.6895L27.9687 54.3654H29.7276L29.5966 55.1755H29.316ZM27.9874 55.1755C27.8377 55.1755 27.7192 55.1279 27.6318 55.0326C27.5445 54.9373 27.5008 54.7975 27.5008 54.6132C27.5008 54.3337 27.5882 53.603 27.7628 52.4211C27.9375 51.2393 28.1028 50.1719 28.2587 49.2188C28.2712 49.1298 28.2805 49.0536 28.2868 48.99C28.2992 48.9265 28.3086 48.8788 28.3148 48.8471L28.4832 49.0472L27.9312 48.4563C28.0497 48.3546 28.1963 48.2752 28.371 48.218C28.5456 48.1545 28.6984 48.1227 28.8294 48.1227C28.9604 48.1227 29.0633 48.1545 29.1382 48.218C29.213 48.2816 29.2505 48.3769 29.2505 48.504C29.2505 48.5993 29.2224 48.8026 29.1663 49.1139C29.1101 49.4189 29.0477 49.7557 28.9791 50.1242C28.7982 51.0773 28.6548 51.8969 28.5487 52.5832C28.4427 53.2694 28.3897 53.8444 28.3897 54.3082C28.3897 54.4989 28.4022 54.6386 28.4271 54.7276C28.4521 54.8165 28.4957 54.8928 28.5581 54.9563C28.477 55.0262 28.3866 55.0802 28.2868 55.1184C28.187 55.1565 28.0872 55.1755 27.9874 55.1755ZM29.7276 54.3654C29.7838 54.3654 29.8181 54.3972 29.8305 54.4607C29.843 54.5243 29.8399 54.6259 29.8212 54.7657C29.7962 54.9055 29.7651 55.0072 29.7276 55.0707C29.6964 55.1406 29.6528 55.1755 29.5966 55.1755L29.7276 54.3654ZM27.9219 47.732C27.7847 47.732 27.6911 47.7065 27.6412 47.6557C27.5975 47.6049 27.5757 47.5318 27.5757 47.4365C27.5757 47.2967 27.6162 47.1315 27.6973 46.9409C27.872 46.9917 28.0217 47.0171 28.1464 47.0171C28.2337 47.0171 28.3585 47.0108 28.5207 46.9981C28.5394 46.9981 28.5581 46.9981 28.5768 46.9981C28.5955 46.9917 28.6142 46.9885 28.6329 46.9885L28.6049 47.122C28.424 46.9695 28.2836 46.7948 28.1839 46.5978C28.0903 46.4008 28.0435 46.1975 28.0435 45.9878C28.0435 45.7464 28.1121 45.5589 28.2493 45.4255C28.3928 45.2921 28.6049 45.2253 28.8856 45.2253C29.16 45.2253 29.4064 45.2762 29.6247 45.3778C29.843 45.4795 29.9491 45.6034 29.9428 45.7495C29.9366 45.8385 29.8929 45.9179 29.8118 45.9878C29.737 46.0577 29.6278 46.0799 29.4844 46.0545C29.397 46.0482 29.3222 46.0196 29.2598 45.9687C29.1974 45.9116 29.1475 45.8385 29.1101 45.7495C28.9604 45.7559 28.8513 45.8004 28.7826 45.883C28.714 45.9592 28.6797 46.0704 28.6797 46.2165C28.6797 46.5088 28.8294 46.7757 29.1288 47.0171L28.7078 46.9504C28.7889 46.925 28.8637 46.9028 28.9323 46.8837C29.001 46.8646 29.0633 46.8488 29.1195 46.8361C29.2255 46.7979 29.3222 46.7693 29.4095 46.7503C29.5031 46.7312 29.5904 46.7217 29.6715 46.7217C29.815 46.7217 29.9085 46.7471 29.9522 46.7979C30.0021 46.8424 30.027 46.9123 30.027 47.0076C30.027 47.1792 29.9865 47.3475 29.9054 47.5127C29.7619 47.4683 29.606 47.446 29.4376 47.446C29.2941 47.446 29.1569 47.4619 29.0259 47.4937C28.8949 47.5191 28.739 47.5572 28.5581 47.6081C28.4458 47.6398 28.3335 47.6684 28.2213 47.6938C28.1152 47.7192 28.0154 47.732 27.9219 47.732Z" fill="#3C3C3C"/>
<path d="M29.7355 54.3654H30.905L30.8302 54.556C30.8302 54.0096 30.9082 53.3424 31.0641 52.5546C31.22 51.7667 31.3729 51.0932 31.5226 50.534C31.535 50.4959 31.5444 50.461 31.5506 50.4292C31.5569 50.3974 31.5631 50.372 31.5693 50.3529L31.6442 50.7818L31.0735 50.21C31.192 50.1083 31.3323 50.0289 31.4945 49.9717C31.6567 49.9145 31.8126 49.8859 31.9623 49.8859C32.1182 49.8859 32.2305 49.924 32.2991 50.0003C32.3677 50.0702 32.402 50.1909 32.402 50.3625C32.3958 50.3879 32.3833 50.4355 32.3646 50.5054C32.3521 50.569 32.3365 50.6516 32.3178 50.7532C32.1432 51.4966 31.9904 52.1987 31.8594 52.8595C31.7284 53.5204 31.6629 54.0858 31.6629 54.556L31.2793 55.1755H29.6045L29.7355 54.3654ZM29.6045 55.1755C29.5484 55.1755 29.5141 55.1438 29.5016 55.0802C29.4891 55.0167 29.4923 54.915 29.511 54.7752C29.5359 54.6355 29.5671 54.5338 29.6045 54.4703C29.6357 54.4004 29.6794 54.3654 29.7355 54.3654L29.6045 55.1755ZM30.8115 57.0627C30.6556 57.0627 30.5277 57.0213 30.4279 56.9387C30.3343 56.8561 30.2875 56.7481 30.2875 56.6147C30.2875 56.4114 30.353 56.2462 30.484 56.1191C30.615 55.9984 30.7865 55.938 30.9986 55.938C31.1545 55.938 31.2793 55.9793 31.3729 56.0619C31.4727 56.1509 31.5226 56.2652 31.5226 56.405C31.5226 56.602 31.4571 56.7608 31.3261 56.8816C31.1951 57.0023 31.0236 57.0627 30.8115 57.0627Z" fill="#3C3C3C"/>
<path d="M38.2976 55.1755C37.9982 55.1755 37.6925 55.1247 37.3806 55.023C37.075 54.9277 36.8349 54.8165 36.6602 54.6895L36.9503 54.3654H38.7092L38.5782 55.1755H38.2976ZM36.9596 55.1755C36.8037 55.1755 36.682 55.1247 36.5947 55.023C36.5074 54.9277 36.4637 54.7848 36.4637 54.5942C36.4637 54.3654 36.523 53.8285 36.6415 52.9834C36.76 52.132 36.9035 51.2012 37.0719 50.1909C37.2029 49.3458 37.3183 48.666 37.4181 48.1513L37.5584 48.4754L37.0064 47.8844C37.1249 47.7828 37.2715 47.7034 37.4461 47.6462C37.6208 47.5826 37.7736 47.5509 37.9046 47.5509C38.0356 47.5509 38.1385 47.5826 38.2134 47.6462C38.2882 47.7097 38.3256 47.805 38.3256 47.9321C38.3256 48.0338 38.2944 48.2498 38.2321 48.5802C38.1759 48.9106 38.1104 49.2728 38.0356 49.6667C37.8297 50.7278 37.6645 51.646 37.5397 52.4211C37.415 53.19 37.3526 53.8349 37.3526 54.3559C37.3526 54.502 37.3619 54.6228 37.3806 54.7181C37.4056 54.8134 37.4524 54.8928 37.521 54.9563C37.4461 55.0199 37.3588 55.0707 37.259 55.1088C37.1655 55.1533 37.0657 55.1755 36.9596 55.1755ZM38.7092 54.3654C38.7654 54.3654 38.7997 54.3972 38.8121 54.4607C38.8246 54.5243 38.8215 54.6259 38.8028 54.7657C38.7778 54.9055 38.7467 55.0072 38.7092 55.0707C38.678 55.1406 38.6344 55.1755 38.5782 55.1755L38.7092 54.3654Z" fill="#3C3C3C"/>
<path d="M45.5939 54.3654H47.2032L47.0722 55.1755H45.4723L45.5939 54.3654ZM41.655 56.1096C41.4304 56.1096 41.2963 56.0206 41.2527 55.8427C41.209 55.6648 41.2121 55.4424 41.262 55.1755H38.5861L38.7171 54.3654H39.6995C39.7058 53.7809 39.8149 53.2535 40.027 52.7833C40.2391 52.3131 40.5229 51.9287 40.8784 51.6301C41.2339 51.3251 41.6331 51.1218 42.076 51.0201C42.2507 50.283 42.5376 49.762 42.9368 49.457C43.336 49.1457 43.782 48.99 44.2747 48.99C44.649 48.99 44.992 49.0726 45.3039 49.2378C45.6158 49.3967 45.8684 49.6572 46.0618 50.0194C46.2551 50.3752 46.3518 50.8327 46.3518 51.3918C46.3518 51.6205 46.3362 51.8429 46.305 52.059C46.2738 52.275 46.2302 52.5291 46.174 52.8214C46.1054 53.1582 46.0524 53.4568 46.015 53.7173C45.9838 53.9715 45.9682 54.2511 45.9682 54.556L45.5752 55.1755H42.1041C42.0791 55.3471 42.076 55.4996 42.0947 55.633C42.1197 55.7665 42.1696 55.8522 42.2444 55.8904C42.1758 55.9539 42.0854 56.0047 41.9731 56.0428C41.8671 56.0873 41.761 56.1096 41.655 56.1096ZM41.4211 54.3654L41.8982 51.9351C41.499 52.113 41.1747 52.418 40.9252 52.85C40.6757 53.2821 40.5447 53.7872 40.5322 54.3654H41.4211ZM43.2175 54.3654L43.6198 52.059C43.5262 51.9764 43.4046 51.9096 43.2549 51.8588C43.1114 51.8016 42.9524 51.7699 42.7777 51.7635L42.2631 54.3654H43.2175ZM45.1448 54.3654C45.1573 54.0731 45.1791 53.8126 45.2103 53.5839C45.2415 53.3552 45.2914 53.0565 45.36 52.688C45.4162 52.3957 45.4567 52.1543 45.4817 51.9636C45.5066 51.7667 45.5191 51.5697 45.5191 51.3727C45.5191 51.0296 45.4723 50.7405 45.3787 50.5054C45.2852 50.2703 45.148 50.0956 44.9671 49.9812C44.7862 49.8605 44.5616 49.8001 44.2934 49.8001C44.0626 49.8001 43.8599 49.8446 43.6853 49.9336C43.5169 50.0162 43.3734 50.1433 43.2549 50.3148C43.1364 50.4864 43.0366 50.7024 42.9555 50.9629C43.336 51.001 43.6603 51.109 43.9285 51.287C44.203 51.4649 44.3901 51.6618 44.4899 51.8779L44.0502 54.3654H45.1448ZM38.5861 55.1755C38.53 55.1755 38.4957 55.1438 38.4832 55.0802C38.4707 55.0167 38.4739 54.915 38.4926 54.7752C38.5175 54.6355 38.5487 54.5338 38.5861 54.4703C38.6173 54.4004 38.661 54.3654 38.7171 54.3654L38.5861 55.1755ZM47.2032 54.3654C47.2593 54.3654 47.2937 54.3972 47.3061 54.4607C47.3186 54.5243 47.3155 54.6259 47.2968 54.7657C47.2718 54.9055 47.2406 55.0072 47.2032 55.0707C47.172 55.1406 47.1284 55.1755 47.0722 55.1755L47.2032 54.3654Z" fill="#3C3C3C"/>
<path d="M49.9184 55.1755C49.7063 55.1755 49.5286 55.1152 49.3851 54.9945C49.2479 54.8801 49.145 54.7212 49.0764 54.5179L49.3945 54.6799H48.5805L49.357 52.2877L49.3383 52.4211C49.3134 52.5863 49.2915 52.7484 49.2728 52.9072C49.2541 53.0597 49.2448 53.1836 49.2448 53.2789C49.2448 53.603 49.329 53.8666 49.4974 54.07C49.6658 54.2669 49.8997 54.3654 50.1991 54.3654H50.6388L50.5079 55.1755H49.9184ZM47.2145 54.3654H48.5243L48.2624 54.4417C48.2811 54.1367 48.3497 53.5744 48.4682 52.7547C48.5867 51.9287 48.7302 50.9915 48.8986 49.9431C48.9547 49.6127 49.0077 49.2982 49.0576 48.9996C49.1138 48.6946 49.1668 48.415 49.2167 48.1608L49.357 48.4754L48.805 47.8844C48.9111 47.7891 49.0514 47.7097 49.2261 47.6462C49.4007 47.5826 49.5598 47.5509 49.7032 47.5509C49.8405 47.5509 49.9434 47.5826 50.012 47.6462C50.0868 47.7097 50.1243 47.8082 50.1243 47.9416C50.1243 48.0433 50.0962 48.2498 50.04 48.5611C49.9839 48.8661 49.9184 49.2029 49.8436 49.5714C49.6253 50.7024 49.4537 51.6587 49.329 52.4402C49.2105 53.2217 49.1512 53.927 49.1512 54.556L48.7582 55.1755H47.0835L47.2145 54.3654ZM47.0835 55.1755C47.0273 55.1755 46.993 55.1438 46.9806 55.0802C46.9681 55.0167 46.9712 54.915 46.9899 54.7752C47.0149 54.6355 47.0461 54.5338 47.0835 54.4703C47.1147 54.4004 47.1583 54.3654 47.2145 54.3654L47.0835 55.1755ZM50.6388 54.3654C50.695 54.3654 50.7293 54.3972 50.7418 54.4607C50.7542 54.5243 50.7511 54.6259 50.7324 54.7657C50.7075 54.9055 50.6763 55.0072 50.6388 55.0707C50.6077 55.1406 50.564 55.1755 50.5079 55.1755L50.6388 54.3654Z" fill="#3C3C3C"/>
<path d="M50.65 54.3654H52.016L51.7633 54.6228V54.3559C51.7633 54.2415 51.7821 54.0731 51.8195 53.8508C51.8631 53.622 51.9099 53.3837 51.9598 53.1359C52.0472 52.7293 52.1158 52.3735 52.1657 52.0685C52.2218 51.7571 52.2499 51.4839 52.2499 51.2488C52.2499 51.1281 52.2405 51.0106 52.2218 50.8962C52.2093 50.7755 52.1906 50.6611 52.1657 50.5531C52.2655 50.4895 52.3653 50.4387 52.4651 50.4006C52.5649 50.3625 52.6584 50.3434 52.7457 50.3434C52.8954 50.3434 53.0046 50.3974 53.0732 50.5054C53.1481 50.6071 53.1855 50.7628 53.1855 50.9724C53.1855 51.1122 53.1699 51.2615 53.1387 51.4204C53.1138 51.5792 53.0732 51.7826 53.0171 52.0304C52.9547 52.329 52.9079 52.5609 52.8767 52.7261C52.8518 52.885 52.8393 53.047 52.8393 53.2122C52.8393 53.5744 52.9235 53.8571 53.0919 54.0604C53.2603 54.2638 53.4974 54.3654 53.803 54.3654H54.9351L54.6825 54.6228V54.3559C54.6825 54.2415 54.7043 54.0636 54.748 53.8222C54.7916 53.5744 54.8415 53.317 54.8977 53.0502C54.9912 52.5863 55.063 52.1956 55.1129 51.8779C55.169 51.5602 55.1971 51.287 55.1971 51.0582C55.1971 50.9438 55.1877 50.8295 55.169 50.7151C55.1565 50.5944 55.1378 50.48 55.1129 50.372C55.2127 50.3085 55.3125 50.2576 55.4123 50.2195C55.5121 50.1814 55.6056 50.1623 55.693 50.1623C55.8427 50.1623 55.9518 50.2163 56.0204 50.3243C56.0953 50.426 56.1327 50.5785 56.1327 50.7818C56.1327 50.928 56.1171 51.0932 56.0859 51.2774C56.0547 51.4617 56.0111 51.6809 55.9549 51.9351C55.8863 52.2655 55.8364 52.5228 55.8052 52.7071C55.774 52.885 55.7584 53.0565 55.7584 53.2217C55.7584 53.5839 55.8427 53.8666 56.0111 54.07C56.1795 54.2669 56.4165 54.3654 56.7221 54.3654H57.8636L57.6203 54.6228V54.3559C57.6203 54.2415 57.6422 54.0541 57.6858 53.7936C57.7357 53.5267 57.7919 53.2471 57.8542 52.9549C57.9665 52.3639 58.0476 51.9128 58.0975 51.6015C58.1536 51.2901 58.1817 51.0169 58.1817 50.7818C58.1817 50.6675 58.1724 50.5531 58.1536 50.4387C58.1412 50.318 58.1225 50.2036 58.0975 50.0956C58.1973 50.0321 58.2971 49.9812 58.3969 49.9431C58.4967 49.905 58.5903 49.8859 58.6776 49.8859C58.8273 49.8859 58.9364 49.9368 59.0051 50.0384C59.0799 50.1401 59.1173 50.2894 59.1173 50.4864C59.1173 50.6389 59.0955 50.8327 59.0518 51.0677C59.0144 51.2965 58.9552 51.6047 58.8741 51.9922C58.7556 52.5641 58.6651 53.047 58.6027 53.4409C58.5404 53.8349 58.5092 54.2066 58.5092 54.556L58.1162 55.1755H56.3292C56.1171 55.1755 55.9393 55.1152 55.7959 54.9945C55.6586 54.8801 55.5557 54.7212 55.4871 54.5179L55.7397 54.6799H55.4965L55.1784 55.1755H53.41C53.198 55.1755 53.0202 55.1152 52.8767 54.9945C52.7395 54.8801 52.6366 54.7212 52.568 54.5179L52.8206 54.6799H52.5773L52.2592 55.1755H50.519L50.65 54.3654ZM50.519 55.1755C50.4628 55.1755 50.4285 55.1438 50.416 55.0802C50.4036 55.0167 50.4067 54.915 50.4254 54.7752C50.4504 54.6355 50.4815 54.5338 50.519 54.4703C50.5502 54.4004 50.5938 54.3654 50.65 54.3654L50.519 55.1755Z" fill="#3C3C3C"/>
<path d="M59.2124 58.416C58.8755 58.416 58.6385 58.3557 58.5013 58.2349C58.3578 58.1206 58.2861 57.9903 58.2861 57.8442C58.8974 57.8442 59.3839 57.733 59.7457 57.5106C60.1137 57.2882 60.4131 56.8943 60.6439 56.3288C60.8809 55.7633 61.0805 54.95 61.2427 53.8889C61.2676 53.711 61.2926 53.5426 61.3175 53.3837C61.3425 53.2249 61.3674 53.0724 61.3924 52.9263C61.5732 51.719 61.6886 50.9407 61.7385 50.5912L61.7947 50.982L61.3362 50.21C61.5109 50.1083 61.6793 50.0289 61.8415 49.9717C62.0099 49.9145 62.1471 49.8859 62.2531 49.8859C62.3654 49.8859 62.4558 49.9177 62.5245 49.9812C62.5931 50.0448 62.6274 50.1115 62.6274 50.1814C62.6274 50.2576 62.5712 50.6675 62.459 51.4109C62.3467 52.1543 62.2251 52.939 62.0941 53.765L62.0566 54.0128C61.9257 54.8642 61.7573 55.6044 61.5514 56.2335C61.3456 56.8689 61.0524 57.3899 60.6719 57.7965C60.2914 58.2095 59.8049 58.416 59.2124 58.416Z" fill="#3C3C3C"/>
<path d="M63.9138 55.1755C63.7641 55.1755 63.6456 55.1279 63.5582 55.0326C63.4709 54.9373 63.4273 54.7975 63.4273 54.6132C63.4273 54.3337 63.5146 53.603 63.6892 52.4211C63.8639 51.2393 64.0292 50.1719 64.1851 49.2188C64.1976 49.1298 64.2069 49.0536 64.2132 48.99C64.2257 48.9265 64.235 48.8788 64.2412 48.8471L64.4097 49.0472L63.8576 48.4563C63.9762 48.3546 64.1227 48.2752 64.2974 48.218C64.472 48.1545 64.6249 48.1227 64.7558 48.1227C64.8868 48.1227 64.9898 48.1545 65.0646 48.218C65.1395 48.2816 65.1769 48.3769 65.1769 48.504C65.1769 48.5993 65.1488 48.8026 65.0927 49.1139C65.0365 49.4189 64.9742 49.7557 64.9055 50.1242C64.7247 51.0773 64.5812 51.8969 64.4752 52.5832C64.3691 53.2694 64.3161 53.8444 64.3161 54.3082C64.3161 54.4989 64.3286 54.6386 64.3535 54.7276C64.3785 54.8165 64.4221 54.8928 64.4845 54.9563C64.4034 55.0262 64.313 55.0802 64.2132 55.1184C64.1134 55.1565 64.0136 55.1755 63.9138 55.1755ZM63.8483 47.732C63.7111 47.732 63.6175 47.7065 63.5676 47.6557C63.5239 47.6049 63.5021 47.5318 63.5021 47.4365C63.5021 47.2967 63.5427 47.1315 63.6237 46.9409C63.7984 46.9917 63.9481 47.0171 64.0728 47.0171C64.1602 47.0171 64.2849 47.0108 64.4471 46.9981C64.4658 46.9981 64.4845 46.9981 64.5032 46.9981C64.5219 46.9917 64.5406 46.9885 64.5594 46.9885L64.5313 47.122C64.3504 46.9695 64.2101 46.7948 64.1103 46.5978C64.0167 46.4008 63.9699 46.1975 63.9699 45.9878C63.9699 45.7464 64.0385 45.5589 64.1758 45.4255C64.3192 45.2921 64.5313 45.2253 64.812 45.2253C65.0864 45.2253 65.3328 45.2762 65.5511 45.3778C65.7694 45.4795 65.8755 45.6034 65.8692 45.7495C65.863 45.8385 65.8193 45.9179 65.7383 45.9878C65.6634 46.0577 65.5542 46.0799 65.4108 46.0545C65.3234 46.0482 65.2486 46.0196 65.1862 45.9687C65.1239 45.9116 65.074 45.8385 65.0365 45.7495C64.8868 45.7559 64.7777 45.8004 64.7091 45.883C64.6404 45.9592 64.6061 46.0704 64.6061 46.2165C64.6061 46.5088 64.7558 46.7757 65.0552 47.0171L64.6342 46.9504C64.7153 46.925 64.7901 46.9028 64.8588 46.8837C64.9274 46.8646 64.9897 46.8488 65.0459 46.8361C65.1519 46.7979 65.2486 46.7693 65.3359 46.7503C65.4295 46.7312 65.5168 46.7217 65.5979 46.7217C65.7414 46.7217 65.8349 46.7471 65.8786 46.7979C65.9285 46.8424 65.9534 46.9123 65.9534 47.0076C65.9534 47.1792 65.9129 47.3475 65.8318 47.5127C65.6883 47.4683 65.5324 47.446 65.364 47.446C65.2205 47.446 65.0833 47.4619 64.9523 47.4937C64.8213 47.5191 64.6654 47.5572 64.4845 47.6081C64.3722 47.6398 64.26 47.6684 64.1477 47.6938C64.0416 47.7192 63.9419 47.732 63.8483 47.732Z" fill="#3C3C3C"/>
</svg>
