<svg width="137" height="78" viewBox="0 0 137 78" fill="none" xmlns="http://www.w3.org/2000/svg">
<path d="M93.7588 70.6349L95.0785 77.6993C99.4695 76.5059 103.476 74.1931 106.705 70.9872C109.934 67.7812 112.275 63.7919 113.5 59.4096C117.778 44.2018 115.829 32.7979 115.829 32.7979C115.829 32.7979 114.517 48.7276 112.871 52.2055C111.226 55.6833 108.074 67.1959 93.7588 70.6349Z" fill="white"/>
<path d="M102.088 1.97852C102.088 1.97852 91.9964 31.1986 114.067 31.4781C114.067 31.4781 132.752 18.7389 102.803 1.97852" fill="white"/>
<path d="M116.349 32.9291C116.433 32.8557 116.513 32.778 116.59 32.6962C118.088 31.1436 125.796 22.2471 115.425 10.3231C115.425 10.3231 124.267 1.90795 126.293 2.47466C128.319 3.04136 135.283 30.4216 117.164 32.999" fill="white"/>
<path d="M123.841 5.06836C123.841 5.06836 135.416 12.4743 121.132 29.6384C121.132 29.6384 129.749 17.3495 123.841 5.42546" fill="#FBF6F6"/>
<path d="M110.478 30.6784C110.478 30.6784 96.8019 29.3412 101.726 7.5607C101.726 7.5607 99.6346 22.4232 110.316 30.3604" fill="#D7D4DE"/>
<path d="M114.901 10.1292L119.613 6.41846C119.613 6.41846 119.466 4.71059 115.328 0.0061848C115.328 0.0061848 114.047 -0.428546 110.197 5.99149" fill="white"/>
<path d="M110.647 5.55584C110.647 5.55584 114.389 -0.142238 115.142 0.199336L113.791 8.31172" fill="#D7D4DE"/>
<path d="M118.806 5.84383C118.806 5.95251 118.806 5.78173 118.744 5.72738C118.718 5.67149 118.69 5.61707 118.658 5.56436C118.565 5.39357 118.472 5.23055 118.386 5.05976C118.359 5.0163 118.338 4.96927 118.324 4.92003C118.244 4.79745 118.189 4.66029 118.161 4.51635L114.901 0.18457L116.127 8.31248L118.938 6.16988C118.879 6.06774 118.835 5.95803 118.806 5.84383Z" fill="#FBF6F6"/>
<path d="M80.9768 26.2898C80.9768 26.2898 88.7665 32.3362 91.0672 47.1404C91.0672 47.1404 94.4841 59.2701 105.004 64.3262C105.004 64.3262 103.563 45.3537 98.6373 41.3976C98.6373 41.3976 106.706 46.7622 108.367 63.7806C108.367 63.7806 121.906 34.4494 81.864 26.4265" fill="white"/>
<path d="M108.828 60.2445C108.828 60.2445 109.725 36.671 90.8214 32.2575C90.8214 32.2575 101.607 40.066 105.189 48.7532" fill="#FBF6F6"/>
<path d="M103.943 63.005C103.943 63.005 93.011 55.6774 92.4937 44.2207C92.4937 44.2207 103.116 63.4612 104.233 63.0887L103.943 63.005Z" fill="#F5F5F7"/>
<path d="M111.972 63.4123C111.972 63.4123 119.572 52.4431 122.476 51.6357L122.724 51.5891C122.724 51.5891 115.737 58.5759 114.48 67.3559V67.8915C114.48 67.8915 129.532 60.5477 132.04 52.6604C134.306 45.534 135.696 38.3997 137 37.375C133.973 37.7399 117.468 39.7039 111.972 63.4123Z" fill="white"/>
<path d="M115.31 55.9676C115.31 55.9676 121.249 42.5686 132.653 40.6123C132.653 40.6123 115.853 54.5237 115.131 57.5978" fill="#FBF6F6"/>
<path d="M115.131 67.1692C115.131 67.1692 127.956 59.3984 131.03 51.1074C131.03 51.1074 115.853 67.3632 115.131 66.2842" fill="#F5F5F7"/>
<path d="M95.8394 76.8851C95.8394 76.8851 106.498 72.9105 110.116 65.1396L95.8394 76.8851Z" fill="#F5F5F7"/>
<path d="M113.422 53.1299C113.422 53.1299 104.503 74.3152 94.2166 73.2517C94.2166 73.2517 104.122 66.7307 107.165 63.2917" fill="#FBF6F6"/>
<path d="M16.1439 45.8665C13.5372 45.8665 11.4719 45.1747 9.94797 43.7912C8.42406 42.4076 7.66211 40.4426 7.66211 37.8961C7.66211 35.7305 8.2035 33.8156 9.28627 32.1513C10.3891 30.4871 11.8428 29.2038 13.6475 28.3015C15.4521 27.3991 17.3971 26.948 19.4824 26.948C21.2068 26.948 22.6505 27.2387 23.8135 27.8202C24.9765 28.4017 25.7886 29.0835 26.2498 29.8655L23.9639 42.7084L21.8886 45.8665H16.1439ZM21.287 29.8053L21.4976 31.7904C21.4174 31.5297 21.2068 31.3493 20.866 31.249C20.5251 31.1287 20.0639 31.0685 19.4824 31.0685C18.1189 31.0685 16.9158 31.3593 15.8732 31.9408C14.8505 32.5022 14.0485 33.3143 13.467 34.377C12.8855 35.4398 12.5948 36.6829 12.5948 38.1066C12.5948 39.4099 12.8655 40.3423 13.4068 40.9038C13.9482 41.4652 14.8606 41.7459 16.1439 41.7459H19.7531L19.1516 42.0166L21.287 29.8053ZM21.8284 24.211C21.1066 24.211 20.5251 24.0305 20.084 23.6696C19.6629 23.2886 19.4523 22.7873 19.4523 22.1657C19.4523 21.2634 19.7531 20.5315 20.3547 19.9701C20.9562 19.4086 21.7282 19.1279 22.6706 19.1279C23.3924 19.1279 23.9639 19.3184 24.385 19.6994C24.8261 20.0804 25.0467 20.5817 25.0467 21.2033C25.0467 22.0855 24.7459 22.8074 24.1444 23.3688C23.5428 23.9302 22.7709 24.211 21.8284 24.211ZM15.7529 24.211C15.031 24.211 14.4595 24.0305 14.0385 23.6696C13.6174 23.2886 13.4068 22.7873 13.4068 22.1657C13.4068 21.2634 13.7076 20.5315 14.3092 19.9701C14.9107 19.4086 15.6827 19.1279 16.6251 19.1279C17.3469 19.1279 17.9184 19.3184 18.3395 19.6994C18.7806 20.0804 19.0012 20.5817 19.0012 21.2033C19.0012 22.0855 18.6904 22.8074 18.0688 23.3688C17.4673 23.9302 16.6953 24.211 15.7529 24.211Z" fill="white"/>
<path d="M32.2339 45.8665C30.7702 45.8665 29.6573 45.5758 28.8954 44.9943C28.1334 44.3927 27.7525 43.5105 27.7525 42.3475C27.7525 41.7459 27.8527 41.2045 28.0532 40.7233C28.8352 41.0441 29.5471 41.2948 30.1887 41.4752C30.8303 41.6557 31.4519 41.7459 32.0535 41.7459H41.1368L39.2419 43.0392C39.2219 42.5981 39.262 42.0868 39.3622 41.5053C39.4825 40.9038 39.6429 40.1418 39.8435 39.2194C40.064 38.1968 40.2244 37.3747 40.3247 36.7531C40.445 36.1115 40.5052 35.53 40.5052 35.0087C40.5052 33.7053 40.1543 32.7128 39.4525 32.031C38.7507 31.3493 37.8383 31.0084 36.7154 31.0084C35.5926 31.0084 34.7203 31.3593 34.0987 32.0611C33.4771 32.7629 33.1262 33.7955 33.046 35.159C30.4794 35.159 29.1962 34.2066 29.1962 32.3017C29.1962 31.3392 29.4969 30.447 30.0985 29.6248C30.7201 28.8027 31.5923 28.141 32.7152 27.6398C33.8581 27.1385 35.1815 26.8878 36.6854 26.8878C38.4499 26.8878 39.9838 27.2287 41.2872 27.9104C42.6106 28.5922 43.6231 29.5547 44.325 30.7979C45.0468 32.021 45.4077 33.4246 45.4077 35.0087C45.4077 35.7706 45.3375 36.5626 45.1972 37.3847C45.0568 38.2069 44.8563 39.1894 44.5956 40.3323C44.4753 40.8737 44.3651 41.375 44.2648 41.8362C44.1846 42.2973 44.1545 42.6382 44.1746 42.8588L42.2797 45.8665H32.2339Z" fill="white"/>
<path d="M48.5411 56.0927C46.8167 56.0927 45.4833 55.7919 44.5409 55.1904C43.5784 54.6089 43.0972 53.857 43.0972 52.9346C45.2226 52.9346 46.917 52.6338 48.1802 52.0323C49.4435 51.4508 50.3959 50.5986 51.0376 49.4757C51.6792 48.3729 52.1805 46.8891 52.5414 45.0243C52.6016 44.7436 52.6517 44.4529 52.6918 44.1521C52.7519 43.8313 52.8121 43.5004 52.8723 43.1596C53.2733 40.9138 53.7946 37.6254 54.4363 33.2943L54.6167 35.2493L52.782 31.0084C53.7044 30.3868 54.5365 29.9256 55.2784 29.6248C56.0203 29.3241 56.7021 29.1737 57.3237 29.1737C58.0455 29.1737 58.617 29.3542 59.0381 29.7151C59.4591 30.056 59.6697 30.5071 59.6697 31.0685C59.6697 31.3292 59.5394 32.2817 59.2787 33.9259C59.0381 35.5701 58.7072 37.7256 58.2861 40.3925L57.8951 42.8287C57.3938 46.0369 56.7622 48.6035 56.0003 50.5284C55.2383 52.4534 54.2558 53.857 53.0527 54.7392C51.8697 55.6416 50.3658 56.0927 48.5411 56.0927Z" fill="white"/>
<path d="M69.7787 56.0927C67.974 56.0927 66.5905 55.802 65.628 55.2205C64.6655 54.639 64.1843 53.877 64.1843 52.9346C66.41 52.9346 68.1244 52.6539 69.3275 52.0925C70.5506 51.5511 71.4529 50.729 72.0344 49.6261C72.636 48.5434 73.1473 47.0094 73.5684 45.0243C73.8892 43.6207 74.2501 41.6958 74.6511 39.2495C75.0522 36.7832 75.4231 34.4171 75.764 32.1513L76.0046 30.4369L76.1249 31.9107C75.764 31.6901 75.3028 31.4896 74.7414 31.3092C74.1799 31.1287 73.5884 31.0385 72.9668 31.0385C71.8239 31.0385 70.8213 31.3693 69.9591 32.031C69.0969 32.6927 68.4352 33.585 67.974 34.7079C67.5128 35.8107 67.2823 37.0338 67.2823 38.3773C67.2823 39.6004 67.5128 40.4727 67.974 40.994C68.4352 41.4953 69.1871 41.7459 70.2298 41.7459H74.8015V45.8665H69.9591C67.4126 45.8665 65.5077 45.2449 64.2445 44.0017C63.0013 42.7585 62.3797 40.9038 62.3797 38.4374C62.3797 36.2919 62.8208 34.347 63.7031 32.6025C64.6054 30.838 65.8586 29.4444 67.4627 28.4218C69.0668 27.3991 70.9216 26.8878 73.027 26.8878C74.4306 26.8878 75.6838 27.1084 76.7866 27.5495C77.8895 27.9706 78.7717 28.4619 79.4334 29.0233C80.1152 29.5647 80.5663 30.0259 80.7869 30.4069C80.7869 30.7477 80.5964 32.2817 80.2154 35.0087C79.8344 37.7156 79.4234 40.3223 78.9823 42.8287C78.3807 46.1773 77.729 48.784 77.0272 50.6488C76.3254 52.5135 75.4131 53.8871 74.2902 54.7693C73.1673 55.6516 71.6635 56.0927 69.7787 56.0927Z" fill="white"/>
<path d="M2.0036 73.3881C1.29011 73.3881 0.775722 73.2191 0.460456 72.881C0.153485 72.5345 0 71.9768 0 71.2077C0 70.9288 0.016593 70.671 0.049779 70.4344C0.082965 70.1893 0.132744 69.8977 0.199116 69.5597C0.257191 69.2554 0.298674 68.9977 0.323563 68.7864C0.356749 68.5751 0.373342 68.3511 0.373342 68.1145C0.373342 67.7933 0.336008 67.4722 0.26134 67.151C0.551717 66.9651 0.808908 66.8721 1.03291 66.8721C1.23203 66.8721 1.37722 66.9397 1.46848 67.075C1.55974 67.2017 1.60537 67.413 1.60537 67.7088C1.60537 67.9117 1.58463 68.1398 1.54315 68.3934C1.50996 68.6385 1.45604 68.9258 1.38137 69.2554C1.28181 69.7625 1.21129 70.1597 1.16981 70.4471C1.12832 70.7344 1.10758 71.0344 1.10758 71.3471C1.10758 71.626 1.13247 71.8331 1.18225 71.9683C1.24033 72.1035 1.32744 72.1965 1.44359 72.2472C1.56804 72.2895 1.75471 72.3106 2.0036 72.3106H8.73621L8.63665 72.5641C8.63665 71.8373 8.74036 70.9499 8.94777 69.9019C9.15518 68.854 9.35845 67.9581 9.55756 67.2144C9.57416 67.1637 9.5866 67.1172 9.5949 67.075C9.6032 67.0327 9.61149 66.9989 9.61979 66.9736L9.71935 67.544L8.96022 66.7834C9.11785 66.6482 9.30452 66.5425 9.52023 66.4665C9.73594 66.3904 9.94335 66.3524 10.1425 66.3524C10.3499 66.3524 10.4992 66.4031 10.5905 66.5045C10.6817 66.5975 10.7274 66.758 10.7274 66.9862C10.7191 67.02 10.7025 67.0834 10.6776 67.1764C10.661 67.2609 10.6403 67.3708 10.6154 67.506C10.3831 68.4948 10.1798 69.4287 10.0056 70.3076C9.83135 71.1865 9.74424 71.9387 9.74424 72.5641L9.234 73.3881H2.0036ZM4.11921 75.8982C3.9118 75.8982 3.74172 75.8432 3.60898 75.7334C3.48453 75.6235 3.4223 75.4798 3.4223 75.3024C3.4223 75.0319 3.50942 74.8122 3.68365 74.6431C3.85787 74.4826 4.08602 74.4023 4.36811 74.4023C4.57552 74.4023 4.74145 74.4572 4.8659 74.5671C4.99864 74.6854 5.06501 74.8375 5.06501 75.0235C5.06501 75.2855 4.9779 75.4967 4.80367 75.6573C4.62945 75.8179 4.40129 75.8982 4.11921 75.8982Z" fill="white"/>
<path d="M17.3324 72.3106H19.4107L19.2365 73.3881H17.0711L17.3324 72.3106ZM13.7234 77.6983C13.2671 77.6983 12.9436 77.618 12.7528 77.4574C12.5702 77.3053 12.479 77.1321 12.479 76.9377C13.3335 76.9377 13.9806 76.8151 14.4203 76.5701C14.8601 76.3334 15.2251 75.8517 15.5155 75.1249C15.8059 74.4065 16.0962 73.2571 16.3866 71.6767C16.5194 70.933 16.648 70.1344 16.7724 69.2808C16.9051 68.4187 17.0172 67.6666 17.1084 67.0243L17.1955 66.4158L17.3698 66.9228C17.2121 66.813 17.0047 66.7073 16.7475 66.6059C16.4903 66.5045 16.1999 66.4538 15.8764 66.4538C15.3786 66.4538 14.9057 66.5975 14.4577 66.8848C14.018 67.1637 13.6571 67.5821 13.375 68.1398C13.1012 68.6976 12.9643 69.3653 12.9643 70.1428C12.9643 70.9372 13.1137 71.4992 13.4123 71.8289C13.711 72.15 14.1507 72.3106 14.7315 72.3106H16.5733V73.3881H14.7315C13.8023 73.3881 13.0888 73.1092 12.591 72.5514C12.1015 71.9937 11.8567 71.1865 11.8567 70.1301C11.8567 69.2343 12.0268 68.4272 12.367 67.7088C12.7154 66.982 13.1966 66.4115 13.8106 65.9974C14.4245 65.5833 15.1131 65.3763 15.8764 65.3763C16.2912 65.3763 16.6604 65.4354 16.984 65.5537C17.3075 65.6636 17.573 65.7946 17.7804 65.9467C17.9961 66.0904 18.1579 66.2341 18.2658 66.3777C18.2658 66.4961 18.1787 67.1722 18.0044 68.4061C17.8302 69.64 17.656 70.7851 17.4818 71.8415C17.2826 73.0332 17.0545 74.0347 16.7973 74.846C16.5484 75.6658 16.1751 76.3461 15.6773 76.887C15.1878 77.4279 14.5365 77.6983 13.7234 77.6983ZM19.4107 72.3106C19.4854 72.3106 19.531 72.3528 19.5476 72.4373C19.5642 72.5219 19.56 72.6571 19.5351 72.843C19.502 73.0289 19.4605 73.1642 19.4107 73.2487C19.3692 73.3416 19.3111 73.3881 19.2365 73.3881L19.4107 72.3106Z" fill="white"/>
<path d="M23.0224 73.3881C22.7403 73.3881 22.5039 73.3078 22.313 73.1473C22.1305 72.9951 21.9936 72.7839 21.9024 72.5134L22.3255 72.7289H21.2428L22.2757 69.547L22.2508 69.7245C22.2176 69.9442 22.1886 70.1597 22.1637 70.371C22.1388 70.5738 22.1264 70.7386 22.1264 70.8654C22.1264 71.2964 22.2384 71.6471 22.4624 71.9176C22.6864 72.1796 22.9975 72.3106 23.3957 72.3106H23.9806L23.8064 73.3881H23.0224ZM19.4259 72.3106H21.1681L20.8197 72.412C20.8446 72.0063 20.9358 71.2584 21.0935 70.1682C21.2511 69.0695 21.4419 67.8229 21.6659 66.4284C21.7406 65.989 21.8111 65.5706 21.8775 65.1734C21.9521 64.7678 22.0227 64.3959 22.089 64.0578L22.2757 64.4762L21.5415 63.6902C21.6825 63.5634 21.8692 63.4578 22.1015 63.3733C22.3338 63.2888 22.5453 63.2465 22.7362 63.2465C22.9187 63.2465 23.0556 63.2888 23.1468 63.3733C23.2464 63.4578 23.2962 63.5888 23.2962 63.7663C23.2962 63.9015 23.2588 64.1762 23.1842 64.5903C23.1095 64.9959 23.0224 65.4439 22.9228 65.934C22.6325 67.4384 22.4043 68.7103 22.2384 69.7498C22.0807 70.7893 22.0019 71.7274 22.0019 72.5641L21.4792 73.3881H19.2516L19.4259 72.3106ZM19.2516 73.3881C19.177 73.3881 19.1313 73.3459 19.1147 73.2614C19.0981 73.1768 19.1023 73.0416 19.1272 72.8557C19.1604 72.6698 19.2019 72.5345 19.2516 72.45C19.2931 72.3571 19.3512 72.3106 19.4259 72.3106L19.2516 73.3881ZM23.9806 72.3106C24.0553 72.3106 24.1009 72.3528 24.1175 72.4373C24.1341 72.5219 24.13 72.6571 24.1051 72.843C24.0719 73.0289 24.0304 73.1642 23.9806 73.2487C23.9392 73.3416 23.8811 73.3881 23.8064 73.3881L23.9806 72.3106Z" fill="white"/>
<path d="M23.9954 72.3106H25.8123L25.4763 72.6529V72.2979C25.4763 72.1458 25.5012 71.9218 25.551 71.626C25.6091 71.3218 25.6713 71.0048 25.7377 70.6752C25.8538 70.1344 25.9451 69.6611 26.0115 69.2554C26.0861 68.8413 26.1235 68.4779 26.1235 68.1652C26.1235 68.0046 26.111 67.8483 26.0861 67.6961C26.0695 67.5356 26.0446 67.3834 26.0115 67.2398C26.1442 67.1553 26.277 67.0876 26.4097 67.0369C26.5424 66.9862 26.6669 66.9609 26.783 66.9609C26.9822 66.9609 27.1273 67.0327 27.2186 67.1764C27.3182 67.3116 27.3679 67.5187 27.3679 67.7976C27.3679 67.9835 27.3472 68.1821 27.3057 68.3934C27.2725 68.6047 27.2186 68.8751 27.1439 69.2047C27.061 69.6019 26.9987 69.9104 26.9573 70.1301C26.9241 70.3414 26.9075 70.5569 26.9075 70.7767C26.9075 71.2584 27.0195 71.6345 27.2435 71.9049C27.4675 72.1754 27.7828 72.3106 28.1893 72.3106H29.6951L29.3591 72.6529V72.2979C29.3591 72.1458 29.3881 71.9091 29.4462 71.588C29.5043 71.2584 29.5707 70.9161 29.6453 70.5611C29.7698 69.9442 29.8652 69.4244 29.9316 69.0019C30.0062 68.5793 30.0436 68.2159 30.0436 67.9117C30.0436 67.7595 30.0311 67.6074 30.0062 67.4553C29.9896 67.2947 29.9647 67.1426 29.9316 66.9989C30.0643 66.9144 30.197 66.8468 30.3298 66.7961C30.4625 66.7454 30.587 66.72 30.7031 66.72C30.9022 66.72 31.0474 66.7919 31.1387 66.9355C31.2383 67.0707 31.288 67.2736 31.288 67.544C31.288 67.7384 31.2673 67.9581 31.2258 68.2032C31.1843 68.4483 31.1263 68.7399 31.0516 69.0779C30.9603 69.5174 30.894 69.8597 30.8525 70.1048C30.811 70.3414 30.7902 70.5696 30.7902 70.7893C30.7902 71.2711 30.9022 71.6471 31.1263 71.9176C31.3503 72.1796 31.6655 72.3106 32.0721 72.3106H33.5903L33.2668 72.6529V72.2979C33.2668 72.1458 33.2958 71.8965 33.3539 71.55C33.4202 71.195 33.4949 70.8231 33.5779 70.4344C33.7272 69.6484 33.8351 69.0484 33.9014 68.6342C33.9761 68.2201 34.0134 67.8567 34.0134 67.544C34.0134 67.3919 34.001 67.2398 33.9761 67.0876C33.9595 66.9271 33.9346 66.7749 33.9014 66.6313C34.0342 66.5468 34.1669 66.4792 34.2997 66.4284C34.4324 66.3777 34.5569 66.3524 34.673 66.3524C34.8721 66.3524 35.0173 66.42 35.1086 66.5552C35.2081 66.6904 35.2579 66.889 35.2579 67.151C35.2579 67.3539 35.2289 67.6116 35.1708 67.9243C35.121 68.2286 35.0422 68.6385 34.9343 69.154C34.7767 69.9146 34.6564 70.5569 34.5734 71.0809C34.4905 71.6049 34.449 72.0993 34.449 72.5641L33.9263 73.3881H31.5494C31.2673 73.3881 31.0308 73.3078 30.84 73.1473C30.6575 72.9951 30.5206 72.7839 30.4293 72.5134L30.7654 72.7289H30.4418L30.0187 73.3881H27.6666C27.3845 73.3881 27.1481 73.3078 26.9573 73.1473C26.7747 72.9951 26.6378 72.7839 26.5466 72.5134L26.8826 72.7289H26.559L26.1359 73.3881H23.8212L23.9954 72.3106ZM23.8212 73.3881C23.7465 73.3881 23.7009 73.3459 23.6843 73.2614C23.6677 73.1768 23.6719 73.0416 23.6967 72.8557C23.7299 72.6698 23.7714 72.5345 23.8212 72.45C23.8627 72.3571 23.9207 72.3106 23.9954 72.3106L23.8212 73.3881Z" fill="white"/>
<path d="M38.9933 73.3881C38.595 73.3881 38.1885 73.3205 37.7737 73.1853C37.3672 73.0585 37.0477 72.9106 36.8154 72.7416L37.2012 72.3106H39.5408L39.3666 73.3881H38.9933ZM37.2261 73.3881C37.027 73.3881 36.8694 73.3247 36.7532 73.198C36.6371 73.0712 36.579 72.8853 36.579 72.6402C36.579 72.2683 36.6951 71.2964 36.9274 69.7245C37.1597 68.1525 37.3796 66.7327 37.587 65.465C37.6036 65.3467 37.6161 65.2453 37.6244 65.1607C37.6409 65.0762 37.6534 65.0128 37.6617 64.9706L37.8857 65.2368L37.1515 64.4508C37.3091 64.3156 37.5041 64.21 37.7364 64.1339C37.9687 64.0494 38.1719 64.0071 38.3461 64.0071C38.5204 64.0071 38.6573 64.0494 38.7568 64.1339C38.8564 64.2184 38.9062 64.3452 38.9062 64.5142C38.9062 64.641 38.8688 64.9114 38.7942 65.3255C38.7195 65.7312 38.6365 66.1791 38.5453 66.6693C38.3047 67.937 38.1138 69.0272 37.9728 69.94C37.8318 70.8527 37.7612 71.6176 37.7612 72.2345C37.7612 72.4881 37.7778 72.674 37.811 72.7923C37.8442 72.9106 37.9023 73.012 37.9853 73.0966C37.8774 73.1895 37.7571 73.2614 37.6244 73.3121C37.4916 73.3628 37.3589 73.3881 37.2261 73.3881ZM39.5408 72.3106C39.6155 72.3106 39.6611 72.3528 39.6777 72.4373C39.6943 72.5219 39.6902 72.6571 39.6653 72.843C39.6321 73.0289 39.5906 73.1642 39.5408 73.2487C39.4994 73.3416 39.4413 73.3881 39.3666 73.3881L39.5408 72.3106ZM37.139 63.4874C36.9565 63.4874 36.832 63.4536 36.7657 63.386C36.7076 63.3183 36.6786 63.2212 36.6786 63.0944C36.6786 62.9085 36.7325 62.6887 36.8403 62.4352C37.0726 62.5028 37.2718 62.5366 37.4377 62.5366C37.5538 62.5366 37.7198 62.5281 37.9355 62.5112C37.9604 62.5112 37.9853 62.5112 38.0101 62.5112C38.035 62.5028 38.0599 62.4986 38.0848 62.4986L38.0475 62.676C37.8069 62.4732 37.6202 62.2408 37.4875 61.9788C37.363 61.7168 37.3008 61.4464 37.3008 61.1675C37.3008 60.8463 37.3921 60.597 37.5746 60.4195C37.7654 60.2421 38.0475 60.1533 38.4208 60.1533C38.7859 60.1533 39.1136 60.2209 39.404 60.3562C39.6943 60.4914 39.8354 60.6562 39.8271 60.8506C39.8188 60.9689 39.7607 61.0745 39.6528 61.1675C39.5533 61.2604 39.4081 61.29 39.2173 61.2562C39.1011 61.2478 39.0016 61.2097 38.9186 61.1421C38.8356 61.0661 38.7693 60.9689 38.7195 60.8506C38.5204 60.859 38.3752 60.9182 38.2839 61.028C38.1927 61.1295 38.147 61.2773 38.147 61.4717C38.147 61.8605 38.3461 62.2154 38.7444 62.5366L38.1844 62.4479C38.2922 62.4141 38.3918 62.3845 38.483 62.3591C38.5743 62.3338 38.6573 62.3126 38.7319 62.2957C38.873 62.245 39.0016 62.207 39.1177 62.1816C39.2422 62.1563 39.3583 62.1436 39.4662 62.1436C39.657 62.1436 39.7814 62.1774 39.8395 62.245C39.9059 62.3042 39.9391 62.3972 39.9391 62.5239C39.9391 62.7521 39.8852 62.9761 39.7773 63.1958C39.5865 63.1366 39.3791 63.1071 39.1551 63.1071C38.9642 63.1071 38.7817 63.1282 38.6075 63.1705C38.4333 63.2043 38.2258 63.255 37.9853 63.3226C37.8359 63.3648 37.6866 63.4029 37.5372 63.4367C37.3962 63.4705 37.2635 63.4874 37.139 63.4874Z" fill="white"/>
<path d="M39.5513 72.3106H41.1069L41.0074 72.5641C41.0074 71.8373 41.1111 70.9499 41.3185 69.9019C41.5259 68.854 41.7292 67.9581 41.9283 67.2144C41.9449 67.1637 41.9573 67.1172 41.9656 67.075C41.9739 67.0327 41.9822 66.9989 41.9905 66.9736L42.0901 67.544L41.3309 66.7834C41.4886 66.6482 41.6753 66.5425 41.891 66.4665C42.1067 66.3904 42.3141 66.3524 42.5132 66.3524C42.7206 66.3524 42.8699 66.4031 42.9612 66.5045C43.0525 66.5975 43.0981 66.758 43.0981 66.9862C43.0898 67.02 43.0732 67.0834 43.0483 67.1764C43.0317 67.2609 43.011 67.3708 42.9861 67.506C42.7538 68.4948 42.5505 69.4287 42.3763 70.3076C42.2021 71.1865 42.115 71.9387 42.115 72.5641L41.6047 73.3881H39.3771L39.5513 72.3106ZM39.3771 73.3881C39.3024 73.3881 39.2568 73.3459 39.2402 73.2614C39.2236 73.1768 39.2278 73.0416 39.2527 72.8557C39.2859 72.6698 39.3273 72.5345 39.3771 72.45C39.4186 72.3571 39.4767 72.3106 39.5513 72.3106L39.3771 73.3881ZM40.9825 75.8982C40.7751 75.8982 40.605 75.8432 40.4723 75.7334C40.3478 75.6235 40.2856 75.4798 40.2856 75.3024C40.2856 75.0319 40.3727 74.8122 40.5469 74.6431C40.7211 74.4826 40.9493 74.4023 41.2314 74.4023C41.4388 74.4023 41.6047 74.4572 41.7292 74.5671C41.8619 74.6854 41.9283 74.8375 41.9283 75.0235C41.9283 75.2855 41.8412 75.4967 41.667 75.6573C41.4927 75.8179 41.2646 75.8982 40.9825 75.8982Z" fill="white"/>
<path d="M50.9397 73.3881C50.5415 73.3881 50.135 73.3205 49.7202 73.1853C49.3136 73.0585 48.9942 72.9106 48.7619 72.7416L49.1477 72.3106H51.4873L51.3131 73.3881H50.9397ZM49.1601 73.3881C48.9527 73.3881 48.791 73.3205 48.6748 73.1853C48.5587 73.0585 48.5006 72.8684 48.5006 72.6148C48.5006 72.3106 48.5794 71.5964 48.737 70.4724C48.8947 69.3399 49.0855 68.1018 49.3095 66.758C49.4837 65.634 49.6372 64.7297 49.7699 64.0452L49.9566 64.4762L49.2224 63.6902C49.38 63.555 49.575 63.4493 49.8073 63.3733C50.0396 63.2888 50.2428 63.2465 50.4171 63.2465C50.5913 63.2465 50.7282 63.2888 50.8277 63.3733C50.9273 63.4578 50.9771 63.5846 50.9771 63.7536C50.9771 63.8888 50.9356 64.1762 50.8526 64.6156C50.778 65.0551 50.6908 65.5368 50.5913 66.0608C50.3175 67.4722 50.0977 68.6934 49.9317 69.7245C49.7658 70.7471 49.6828 71.6049 49.6828 72.2979C49.6828 72.4923 49.6953 72.6529 49.7202 72.7796C49.7533 72.9064 49.8156 73.012 49.9068 73.0966C49.8073 73.1811 49.6911 73.2487 49.5584 73.2994C49.4339 73.3585 49.3012 73.3881 49.1601 73.3881ZM51.4873 72.3106C51.562 72.3106 51.6076 72.3528 51.6242 72.4373C51.6408 72.5219 51.6367 72.6571 51.6118 72.843C51.5786 73.0289 51.5371 73.1642 51.4873 73.2487C51.4458 73.3416 51.3878 73.3881 51.3131 73.3881L51.4873 72.3106Z" fill="white"/>
<path d="M60.6447 72.3106H62.7852L62.611 73.3881H60.4829L60.6447 72.3106ZM55.4055 74.6305C55.1068 74.6305 54.9284 74.5122 54.8703 74.2755C54.8123 74.0389 54.8164 73.7431 54.8828 73.3881H51.3236L51.4978 72.3106H52.8045C52.8128 71.5331 52.958 70.8316 53.2401 70.2062C53.5222 69.5808 53.8997 69.0695 54.3726 68.6723C54.8455 68.2666 55.3764 67.9962 55.9655 67.8609C56.1978 66.8806 56.5794 66.1876 57.1104 65.7819C57.6414 65.3678 58.2346 65.1607 58.89 65.1607C59.3878 65.1607 59.8441 65.2706 60.2589 65.4903C60.6737 65.7016 61.0097 66.0481 61.2669 66.5299C61.5241 67.0031 61.6527 67.6116 61.6527 68.3553C61.6527 68.6596 61.632 68.9554 61.5905 69.2427C61.549 69.5301 61.4909 69.8681 61.4163 70.2569C61.325 70.7048 61.2545 71.102 61.2047 71.4485C61.1632 71.7866 61.1425 72.1585 61.1425 72.5641L60.6198 73.3881H56.0028C55.9696 73.6163 55.9655 73.8191 55.9904 73.9966C56.0236 74.1741 56.0899 74.2882 56.1895 74.3389C56.0982 74.4234 55.9779 74.491 55.8286 74.5417C55.6875 74.6009 55.5465 74.6305 55.4055 74.6305ZM55.0943 72.3106L55.729 69.0779C55.1981 69.3146 54.7666 69.7202 54.4348 70.2949C54.1029 70.8696 53.9287 71.5415 53.9121 72.3106H55.0943ZM57.4837 72.3106L58.0189 69.2427C57.8944 69.1329 57.7326 69.0441 57.5335 68.9765C57.3427 68.9005 57.1311 68.8582 56.8988 68.8498L56.2144 72.3106H57.4837ZM60.0474 72.3106C60.0639 71.9218 60.093 71.5753 60.1345 71.2711C60.1759 70.9668 60.2423 70.5696 60.3336 70.0794C60.4082 69.6907 60.4622 69.3695 60.4954 69.116C60.5286 68.854 60.5451 68.592 60.5451 68.33C60.5451 67.8736 60.4829 67.4891 60.3585 67.1764C60.234 66.8637 60.0515 66.6313 59.8109 66.4792C59.5703 66.3186 59.2716 66.2383 58.9149 66.2383C58.6079 66.2383 58.3383 66.2974 58.106 66.4158C57.882 66.5256 57.6911 66.6947 57.5335 66.9228C57.3759 67.151 57.2431 67.4384 57.1353 67.7849C57.6414 67.8356 58.0728 67.9793 58.4295 68.2159C58.7946 68.4525 59.0435 68.7145 59.1762 69.0019L58.5913 72.3106H60.0474ZM51.3236 73.3881C51.2489 73.3881 51.2033 73.3459 51.1867 73.2614C51.1701 73.1768 51.1742 73.0416 51.1991 72.8557C51.2323 72.6698 51.2738 72.5345 51.3236 72.45C51.3651 72.3571 51.4231 72.3106 51.4978 72.3106L51.3236 73.3881ZM62.7852 72.3106C62.8599 72.3106 62.9055 72.3528 62.9221 72.4373C62.9387 72.5219 62.9345 72.6571 62.9096 72.843C62.8765 73.0289 62.835 73.1642 62.7852 73.2487C62.7437 73.3416 62.6856 73.3881 62.611 73.3881L62.7852 72.3106Z" fill="white"/>
<path d="M66.3967 73.3881C66.1146 73.3881 65.8782 73.3078 65.6874 73.1473C65.5048 72.9951 65.3679 72.7839 65.2767 72.5134L65.6998 72.7289H64.6171L65.65 69.547L65.6251 69.7245C65.5919 69.9442 65.5629 70.1597 65.538 70.371C65.5131 70.5738 65.5007 70.7386 65.5007 70.8654C65.5007 71.2964 65.6127 71.6471 65.8367 71.9176C66.0607 72.1796 66.3718 72.3106 66.77 72.3106H67.3549L67.1807 73.3881H66.3967ZM62.8002 72.3106H64.5424L64.194 72.412C64.2189 72.0063 64.3101 71.2584 64.4678 70.1682C64.6254 69.0695 64.8162 67.8229 65.0402 66.4284C65.1149 65.989 65.1854 65.5706 65.2518 65.1734C65.3265 64.7678 65.397 64.3959 65.4633 64.0578L65.65 64.4762L64.9158 63.6902C65.0568 63.5634 65.2435 63.4578 65.4758 63.3733C65.7081 63.2888 65.9197 63.2465 66.1105 63.2465C66.293 63.2465 66.4299 63.2888 66.5211 63.3733C66.6207 63.4578 66.6705 63.5888 66.6705 63.7663C66.6705 63.9015 66.6332 64.1762 66.5585 64.5903C66.4838 64.9959 66.3967 65.4439 66.2971 65.934C66.0068 67.4384 65.7786 68.7103 65.6127 69.7498C65.455 70.7893 65.3762 71.7274 65.3762 72.5641L64.8536 73.3881H62.6259L62.8002 72.3106ZM62.6259 73.3881C62.5513 73.3881 62.5056 73.3459 62.4891 73.2614C62.4725 73.1768 62.4766 73.0416 62.5015 72.8557C62.5347 72.6698 62.5762 72.5345 62.6259 72.45C62.6674 72.3571 62.7255 72.3106 62.8002 72.3106L62.6259 73.3881ZM67.3549 72.3106C67.4296 72.3106 67.4753 72.3528 67.4918 72.4373C67.5084 72.5219 67.5043 72.6571 67.4794 72.843C67.4462 73.0289 67.4047 73.1642 67.3549 73.2487C67.3135 73.3416 67.2554 73.3881 67.1807 73.3881L67.3549 72.3106Z" fill="white"/>
<path d="M67.3697 72.3106H69.1867L68.8506 72.6529V72.2979C68.8506 72.1458 68.8755 71.9218 68.9253 71.626C68.9834 71.3218 69.0456 71.0048 69.112 70.6752C69.2281 70.1344 69.3194 69.6611 69.3858 69.2554C69.4604 68.8413 69.4978 68.4779 69.4978 68.1652C69.4978 68.0046 69.4853 67.8483 69.4604 67.6961C69.4438 67.5356 69.419 67.3834 69.3858 67.2398C69.5185 67.1553 69.6513 67.0876 69.784 67.0369C69.9167 66.9862 70.0412 66.9609 70.1573 66.9609C70.3565 66.9609 70.5017 67.0327 70.5929 67.1764C70.6925 67.3116 70.7422 67.5187 70.7422 67.7976C70.7422 67.9835 70.7215 68.1821 70.68 68.3934C70.6468 68.6047 70.5929 68.8751 70.5182 69.2047C70.4353 69.6019 70.3731 69.9104 70.3316 70.1301C70.2984 70.3414 70.2818 70.5569 70.2818 70.7767C70.2818 71.2584 70.3938 71.6345 70.6178 71.9049C70.8418 72.1754 71.1571 72.3106 71.5636 72.3106H73.0694L72.7334 72.6529V72.2979C72.7334 72.1458 72.7625 71.9091 72.8205 71.588C72.8786 71.2584 72.945 70.9161 73.0196 70.5611C73.1441 69.9442 73.2395 69.4244 73.3059 69.0019C73.3805 68.5793 73.4179 68.2159 73.4179 67.9117C73.4179 67.7595 73.4054 67.6074 73.3805 67.4553C73.3639 67.2947 73.3391 67.1426 73.3059 66.9989C73.4386 66.9144 73.5714 66.8468 73.7041 66.7961C73.8368 66.7454 73.9613 66.72 74.0774 66.72C74.2766 66.72 74.4218 66.7919 74.513 66.9355C74.6126 67.0707 74.6623 67.2736 74.6623 67.544C74.6623 67.7384 74.6416 67.9581 74.6001 68.2032C74.5586 68.4483 74.5006 68.7399 74.4259 69.0779C74.3346 69.5174 74.2683 69.8597 74.2268 70.1048C74.1853 70.3414 74.1646 70.5696 74.1646 70.7893C74.1646 71.2711 74.2766 71.6471 74.5006 71.9176C74.7246 72.1796 75.0398 72.3106 75.4464 72.3106H76.9646L76.6411 72.6529V72.2979C76.6411 72.1458 76.6701 71.8965 76.7282 71.55C76.7945 71.195 76.8692 70.8231 76.9522 70.4344C77.1015 69.6484 77.2094 69.0484 77.2757 68.6342C77.3504 68.2201 77.3877 67.8567 77.3877 67.544C77.3877 67.3919 77.3753 67.2398 77.3504 67.0876C77.3338 66.9271 77.3089 66.7749 77.2757 66.6313C77.4085 66.5468 77.5412 66.4792 77.674 66.4284C77.8067 66.3777 77.9312 66.3524 78.0473 66.3524C78.2464 66.3524 78.3916 66.42 78.4829 66.5552C78.5824 66.6904 78.6322 66.889 78.6322 67.151C78.6322 67.3539 78.6032 67.6116 78.5451 67.9243C78.4953 68.2286 78.4165 68.6385 78.3087 69.154C78.151 69.9146 78.0307 70.5569 77.9478 71.0809C77.8648 71.6049 77.8233 72.0993 77.8233 72.5641L77.3006 73.3881H74.9237C74.6416 73.3881 74.4052 73.3078 74.2143 73.1473C74.0318 72.9951 73.8949 72.7839 73.8037 72.5134L74.1397 72.7289H73.8161L73.393 73.3881H71.0409C70.7588 73.3881 70.5224 73.3078 70.3316 73.1473C70.1491 72.9951 70.0122 72.7839 69.9209 72.5134L70.2569 72.7289H69.9333L69.5102 73.3881H67.1955L67.3697 72.3106ZM67.1955 73.3881C67.1208 73.3881 67.0752 73.3459 67.0586 73.2614C67.042 73.1768 67.0462 73.0416 67.0711 72.8557C67.1042 72.6698 67.1457 72.5345 67.1955 72.45C67.237 72.3571 67.2951 72.3106 67.3697 72.3106L67.1955 73.3881Z" fill="white"/>
<path d="M78.7586 77.6983C78.3106 77.6983 77.9953 77.618 77.8128 77.4574C77.622 77.3053 77.5266 77.1321 77.5266 76.9377C78.3396 76.9377 78.9868 76.7898 79.468 76.494C79.9575 76.1982 80.3557 75.6742 80.6627 74.922C80.9779 74.1699 81.2434 73.0881 81.4591 71.6767C81.4923 71.4401 81.5255 71.2161 81.5587 71.0048C81.5919 70.7936 81.625 70.5907 81.6582 70.3963C81.8988 68.7906 82.0523 67.7553 82.1187 67.2905L82.1934 67.8102L81.5836 66.7834C81.8159 66.6482 82.0399 66.5425 82.2556 66.4665C82.4796 66.3904 82.6621 66.3524 82.8032 66.3524C82.9525 66.3524 83.0728 66.3946 83.164 66.4792C83.2553 66.5637 83.3009 66.6524 83.3009 66.7454C83.3009 66.8468 83.2263 67.3919 83.0769 68.3807C82.9276 69.3695 82.7658 70.4133 82.5916 71.5119L82.5418 71.8415C82.3676 72.974 82.1436 73.9586 81.8698 74.7953C81.596 75.6404 81.2061 76.3334 80.7 76.8743C80.1939 77.4236 79.5468 77.6983 78.7586 77.6983Z" fill="white"/>
<path d="M85.012 73.3881C84.8129 73.3881 84.6553 73.3247 84.5391 73.198C84.423 73.0712 84.3649 72.8853 84.3649 72.6402C84.3649 72.2683 84.481 71.2964 84.7133 69.7245C84.9456 68.1525 85.1655 66.7327 85.3729 65.465C85.3895 65.3467 85.4019 65.2453 85.4102 65.1607C85.4268 65.0762 85.4393 65.0128 85.4476 64.9706L85.6716 65.2368L84.9373 64.4508C85.095 64.3156 85.2899 64.21 85.5222 64.1339C85.7545 64.0494 85.9578 64.0071 86.132 64.0071C86.3063 64.0071 86.4431 64.0494 86.5427 64.1339C86.6423 64.2184 86.692 64.3452 86.692 64.5142C86.692 64.641 86.6547 64.9114 86.58 65.3255C86.5054 65.7312 86.4224 66.1791 86.3311 66.6693C86.0905 67.937 85.8997 69.0272 85.7587 69.94C85.6176 70.8527 85.5471 71.6176 85.5471 72.2345C85.5471 72.4881 85.5637 72.674 85.5969 72.7923C85.6301 72.9106 85.6882 73.012 85.7711 73.0966C85.6633 73.1895 85.543 73.2614 85.4102 73.3121C85.2775 73.3628 85.1447 73.3881 85.012 73.3881ZM84.9249 63.4874C84.7424 63.4874 84.6179 63.4536 84.5515 63.386C84.4935 63.3183 84.4644 63.2212 84.4644 63.0944C84.4644 62.9085 84.5184 62.6887 84.6262 62.4352C84.8585 62.5028 85.0576 62.5366 85.2236 62.5366C85.3397 62.5366 85.5056 62.5281 85.7214 62.5112C85.7462 62.5112 85.7711 62.5112 85.796 62.5112C85.8209 62.5028 85.8458 62.4986 85.8707 62.4986L85.8334 62.676C85.5928 62.4732 85.4061 62.2408 85.2733 61.9788C85.1489 61.7168 85.0867 61.4464 85.0867 61.1675C85.0867 60.8463 85.1779 60.597 85.3605 60.4195C85.5513 60.2421 85.8334 60.1533 86.2067 60.1533C86.5717 60.1533 86.8995 60.2209 87.1898 60.3562C87.4802 60.4914 87.6213 60.6562 87.613 60.8506C87.6047 60.9689 87.5466 61.0745 87.4387 61.1675C87.3392 61.2604 87.194 61.29 87.0032 61.2562C86.887 61.2478 86.7875 61.2097 86.7045 61.1421C86.6215 61.0661 86.5552 60.9689 86.5054 60.8506C86.3063 60.859 86.1611 60.9182 86.0698 61.028C85.9785 61.1295 85.9329 61.2773 85.9329 61.4717C85.9329 61.8605 86.132 62.2154 86.5303 62.5366L85.9703 62.4479C86.0781 62.4141 86.1777 62.3845 86.2689 62.3591C86.3602 62.3338 86.4431 62.3126 86.5178 62.2957C86.6589 62.245 86.7875 62.207 86.9036 62.1816C87.0281 62.1563 87.1442 62.1436 87.2521 62.1436C87.4429 62.1436 87.5673 62.1774 87.6254 62.245C87.6918 62.3042 87.725 62.3972 87.725 62.5239C87.725 62.7521 87.671 62.9761 87.5632 63.1958C87.3724 63.1366 87.1649 63.1071 86.9409 63.1071C86.7501 63.1071 86.5676 63.1282 86.3934 63.1705C86.2191 63.2043 86.0117 63.255 85.7711 63.3226C85.6218 63.3648 85.4725 63.4029 85.3231 63.4367C85.1821 63.4705 85.0493 63.4874 84.9249 63.4874Z" fill="white"/>
</svg>
