<svg width="35" height="36" viewBox="0 0 35 36" fill="none" xmlns="http://www.w3.org/2000/svg">
<path opacity="0.4" d="M29.75 24.3143C29.3416 25.408 28.4812 26.2393 27.3583 26.6184C25.7833 27.1434 24.1646 27.5372 22.5312 27.8143C22.3708 27.8434 22.2104 27.8726 22.05 27.8872C21.7875 27.9309 21.525 27.9601 21.2625 27.9893C20.9416 28.033 20.6062 28.0622 20.2708 28.0913C19.3521 28.1643 18.4479 28.208 17.5291 28.208C16.5958 28.208 15.6625 28.1643 14.7437 28.0768C14.35 28.0476 13.9708 28.0038 13.5916 27.9455C13.3729 27.9163 13.1541 27.8872 12.95 27.858C12.7896 27.8288 12.6291 27.8143 12.4687 27.7851C10.85 27.5226 9.2458 27.1288 7.68539 26.6038C6.51872 26.2101 5.62914 25.3788 5.23539 24.3143C4.84164 23.2643 4.98747 22.0393 5.61455 20.9893L7.26247 18.2476C7.61247 17.6497 7.9333 16.4976 7.9333 15.7976V13.0851C7.9333 7.79134 12.2354 3.48926 17.5291 3.48926C22.8083 3.48926 27.1104 7.79134 27.1104 13.0851V15.7976C27.1104 16.4976 27.4312 17.6497 27.7958 18.2476L29.4437 20.9893C30.0416 22.0101 30.1583 23.2059 29.75 24.3143Z" fill="#9CE7ED"/>
<path d="M17.5001 16.1916C16.8876 16.1916 16.3917 15.6958 16.3917 15.0833V10.5624C16.3917 9.94994 16.8876 9.4541 17.5001 9.4541C18.1126 9.4541 18.6084 9.94994 18.6084 10.5624V15.0833C18.5938 15.6958 18.098 16.1916 17.5001 16.1916Z" fill="#8174A0"/>
<path d="M21.627 29.6816C21.0145 31.3732 19.3958 32.5837 17.5 32.5837C16.3479 32.5837 15.2104 32.117 14.4083 31.2857C13.9416 30.8482 13.5916 30.2649 13.3875 29.667C13.577 29.6962 13.7666 29.7107 13.9708 29.7399C14.3062 29.7837 14.6562 29.8274 15.0062 29.8566C15.8375 29.9295 16.6833 29.9732 17.5291 29.9732C18.3604 29.9732 19.1916 29.9295 20.0083 29.8566C20.3145 29.8274 20.6208 29.8128 20.9125 29.7691C21.1458 29.7399 21.3791 29.7107 21.627 29.6816Z" fill="#9CE7ED"/>
</svg>
