<svg width="124" height="15" viewBox="0 0 124 15" fill="none" xmlns="http://www.w3.org/2000/svg">
<path d="M7.49756 0.78125C8.15336 0.78125 8.66993 1.27658 8.99971 1.94495L10.101 4.16573C10.1344 4.23445 10.2135 4.33124 10.3325 4.41977C10.4514 4.50822 10.5678 4.55701 10.6444 4.56988L12.638 4.90383C13.358 5.02483 13.9616 5.37781 14.1575 5.99244C14.3533 6.60656 14.0665 7.24475 13.5487 7.76353L13.5481 7.76403L11.9994 9.32553C11.9381 9.38742 11.8693 9.50401 11.8262 9.6559C11.7834 9.80676 11.7796 9.94418 11.799 10.033L11.7992 10.0342L12.2423 11.9659C12.4261 12.7698 12.3652 13.5671 11.7982 13.9839C11.2292 14.4021 10.4517 14.2167 9.74533 13.796L7.8766 12.6806C7.79812 12.6337 7.66335 12.5958 7.50069 12.5958C7.33921 12.5958 7.2016 12.6332 7.11802 12.6819L7.11684 12.6826L5.2518 13.7958C4.54628 14.2179 3.76971 14.4 3.20069 13.9814C2.63406 13.5645 2.57009 12.7688 2.75444 11.9655L3.19744 10.0342L3.19771 10.033C3.21713 9.94417 3.21333 9.80676 3.1705 9.6559C3.12738 9.50401 3.05862 9.38742 2.99724 9.32553L1.44741 7.7629C0.932904 7.24414 0.647004 6.6065 0.841217 5.99328C1.036 5.37828 1.63839 5.02488 2.35896 4.90379L4.35083 4.57012L4.35146 4.57001C4.42448 4.55734 4.53919 4.5091 4.6578 4.42043C4.77663 4.33159 4.85599 4.2346 4.88945 4.16573L4.89113 4.16229L5.99101 1.94436L5.99145 1.94348C6.32435 1.27567 6.84252 0.78125 7.49756 0.78125Z" fill="#4F4762"/>
<path d="M28.4976 0.78125C29.1534 0.78125 29.6699 1.27658 29.9997 1.94495L31.101 4.16573C31.1344 4.23445 31.2135 4.33124 31.3325 4.41977C31.4514 4.50822 31.5678 4.55701 31.6444 4.56988L33.638 4.90383C34.358 5.02483 34.9616 5.37781 35.1575 5.99244C35.3533 6.60656 35.0665 7.24475 34.5487 7.76353L34.5481 7.76403L32.9994 9.32553C32.9381 9.38742 32.8693 9.50401 32.8262 9.6559C32.7834 9.80676 32.7796 9.94418 32.799 10.033L32.7992 10.0342L33.2423 11.9659C33.4261 12.7698 33.3652 13.5671 32.7982 13.9839C32.2292 14.4021 31.4517 14.2167 30.7453 13.796L28.8766 12.6806C28.7981 12.6337 28.6634 12.5958 28.5007 12.5958C28.3392 12.5958 28.2016 12.6332 28.118 12.6819L28.1168 12.6826L26.2518 13.7958C25.5463 14.2179 24.7697 14.4 24.2007 13.9814C23.6341 13.5645 23.5701 12.7688 23.7544 11.9655L24.1974 10.0342L24.1977 10.033C24.2171 9.94417 24.2133 9.80676 24.1705 9.6559C24.1274 9.50401 24.0586 9.38742 23.9972 9.32553L22.4474 7.7629C21.9329 7.24414 21.647 6.6065 21.8412 5.99328C22.036 5.37828 22.6384 5.02488 23.359 4.90379L25.3508 4.57012L25.3515 4.57001C25.4245 4.55734 25.5392 4.5091 25.6578 4.42043C25.7766 4.33159 25.856 4.2346 25.8895 4.16573L25.8911 4.16229L26.991 1.94436L26.9914 1.94348C27.3244 1.27567 27.8425 0.78125 28.4976 0.78125Z" fill="#4F4762"/>
<path d="M49.4976 0.78125C50.1534 0.78125 50.6699 1.27658 50.9997 1.94495L52.101 4.16573C52.1344 4.23445 52.2135 4.33124 52.3325 4.41977C52.4514 4.50822 52.5678 4.55701 52.6444 4.56988L54.638 4.90383C55.358 5.02483 55.9616 5.37781 56.1575 5.99244C56.3533 6.60656 56.0665 7.24475 55.5487 7.76353L55.5481 7.76403L53.9994 9.32553C53.9381 9.38742 53.8693 9.50401 53.8262 9.6559C53.7834 9.80676 53.7796 9.94418 53.799 10.033L53.7992 10.0342L54.2423 11.9659C54.4261 12.7698 54.3652 13.5671 53.7982 13.9839C53.2292 14.4021 52.4517 14.2167 51.7453 13.796L49.8766 12.6806C49.7981 12.6337 49.6634 12.5958 49.5007 12.5958C49.3392 12.5958 49.2016 12.6332 49.118 12.6819L49.1168 12.6826L47.2518 13.7958C46.5463 14.2179 45.7697 14.4 45.2007 13.9814C44.6341 13.5645 44.5701 12.7688 44.7544 11.9655L45.1974 10.0342L45.1977 10.033C45.2171 9.94417 45.2133 9.80676 45.1705 9.6559C45.1274 9.50401 45.0586 9.38742 44.9972 9.32553L43.4474 7.7629C42.9329 7.24414 42.647 6.6065 42.8412 5.99328C43.036 5.37828 43.6384 5.02488 44.359 4.90379L46.3508 4.57012L46.3515 4.57001C46.4245 4.55734 46.5392 4.5091 46.6578 4.42043C46.7766 4.33159 46.856 4.2346 46.8895 4.16573L46.8911 4.16229L47.991 1.94436L47.9914 1.94348C48.3244 1.27567 48.8425 0.78125 49.4976 0.78125Z" fill="#4F4762"/>
<path d="M70.4976 0.78125C71.1534 0.78125 71.6699 1.27658 71.9997 1.94495L73.101 4.16573C73.1344 4.23445 73.2135 4.33124 73.3325 4.41977C73.4514 4.50822 73.5678 4.55701 73.6444 4.56988L75.638 4.90383C76.358 5.02483 76.9616 5.37781 77.1575 5.99244C77.3533 6.60656 77.0665 7.24475 76.5487 7.76353L76.5481 7.76403L74.9994 9.32553C74.9381 9.38742 74.8693 9.50401 74.8262 9.6559C74.7834 9.80676 74.7796 9.94418 74.799 10.033L74.7992 10.0342L75.2423 11.9659C75.4261 12.7698 75.3652 13.5671 74.7982 13.9839C74.2292 14.4021 73.4517 14.2167 72.7453 13.796L70.8766 12.6806C70.7981 12.6337 70.6634 12.5958 70.5007 12.5958C70.3392 12.5958 70.2016 12.6332 70.118 12.6819L70.1168 12.6826L68.2518 13.7958C67.5463 14.2179 66.7697 14.4 66.2007 13.9814C65.6341 13.5645 65.5701 12.7688 65.7544 11.9655L66.1974 10.0342L66.1977 10.033C66.2171 9.94417 66.2133 9.80676 66.1705 9.6559C66.1274 9.50401 66.0586 9.38742 65.9972 9.32553L64.4474 7.7629C63.9329 7.24414 63.647 6.6065 63.8412 5.99328C64.036 5.37828 64.6384 5.02488 65.359 4.90379L67.3508 4.57012L67.3515 4.57001C67.4245 4.55734 67.5392 4.5091 67.6578 4.42043C67.7766 4.33159 67.856 4.2346 67.8895 4.16573L67.8911 4.16229L68.991 1.94436L68.9914 1.94348C69.3244 1.27567 69.8425 0.78125 70.4976 0.78125Z" fill="#4F4762"/>
<path d="M91.4976 0.78125C92.1534 0.78125 92.6699 1.27658 92.9997 1.94495L94.101 4.16573C94.1344 4.23445 94.2135 4.33124 94.3325 4.41977C94.4514 4.50822 94.5678 4.55701 94.6444 4.56988L96.638 4.90383C97.358 5.02483 97.9616 5.37781 98.1575 5.99244C98.3533 6.60656 98.0665 7.24475 97.5487 7.76353L97.5481 7.76403L95.9994 9.32553C95.9381 9.38742 95.8693 9.50401 95.8262 9.6559C95.7834 9.80676 95.7796 9.94418 95.799 10.033L95.7992 10.0342L96.2423 11.9659C96.4261 12.7698 96.3652 13.5671 95.7982 13.9839C95.2292 14.4021 94.4517 14.2167 93.7453 13.796L91.8766 12.6806C91.7981 12.6337 91.6634 12.5958 91.5007 12.5958C91.3392 12.5958 91.2016 12.6332 91.118 12.6819L91.1168 12.6826L89.2518 13.7958C88.5463 14.2179 87.7697 14.4 87.2007 13.9814C86.6341 13.5645 86.5701 12.7688 86.7544 11.9655L87.1974 10.0342L87.1977 10.033C87.2171 9.94417 87.2133 9.80676 87.1705 9.6559C87.1274 9.50401 87.0586 9.38742 86.9972 9.32553L85.4474 7.7629C84.9329 7.24414 84.647 6.6065 84.8412 5.99328C85.036 5.37828 85.6384 5.02488 86.359 4.90379L88.3508 4.57012L88.3515 4.57001C88.4245 4.55734 88.5392 4.5091 88.6578 4.42043C88.7766 4.33159 88.856 4.2346 88.8895 4.16573L88.8911 4.16229L89.991 1.94436L89.9914 1.94348C90.3244 1.27567 90.8425 0.78125 91.4976 0.78125Z" fill="#4F4762"/>
<path d="M108.524 12.1193C108.038 12.1193 107.604 12.0213 107.22 11.8253C106.839 11.6264 106.536 11.3537 106.308 11.0071C106.084 10.6605 105.964 10.2642 105.95 9.81818H106.722C106.747 10.2812 106.929 10.6619 107.267 10.9602C107.605 11.2557 108.024 11.4034 108.524 11.4034C108.913 11.4034 109.26 11.3111 109.564 11.1264C109.868 10.9389 110.105 10.6832 110.276 10.3594C110.449 10.0327 110.536 9.66477 110.536 9.25568C110.533 8.82955 110.44 8.45455 110.259 8.13068C110.077 7.80398 109.83 7.5483 109.517 7.36364C109.207 7.17898 108.859 7.08665 108.473 7.08665C108.18 7.08381 107.893 7.1321 107.612 7.23153C107.331 7.33097 107.097 7.45881 106.909 7.61506L106.112 7.51278L106.636 3.27273H110.949V3.98864H107.305L106.956 6.90767H106.999C107.192 6.74574 107.426 6.61364 107.702 6.51136C107.98 6.40909 108.274 6.35795 108.584 6.35795C109.098 6.35795 109.56 6.48153 109.969 6.72869C110.381 6.97585 110.706 7.31676 110.945 7.75142C111.186 8.18324 111.307 8.6804 111.307 9.2429C111.307 9.79403 111.186 10.2869 110.945 10.7216C110.706 11.1534 110.376 11.4943 109.956 11.7443C109.538 11.9943 109.061 12.1193 108.524 12.1193ZM115.984 2.86364L113.171 13.3125H112.46L115.272 2.86364H115.984ZM119.821 12.1193C119.335 12.1193 118.901 12.0213 118.517 11.8253C118.136 11.6264 117.832 11.3537 117.605 11.0071C117.381 10.6605 117.261 10.2642 117.247 9.81818H118.018C118.044 10.2812 118.226 10.6619 118.564 10.9602C118.902 11.2557 119.321 11.4034 119.821 11.4034C120.21 11.4034 120.557 11.3111 120.861 11.1264C121.165 10.9389 121.402 10.6832 121.572 10.3594C121.746 10.0327 121.832 9.66477 121.832 9.25568C121.83 8.82955 121.737 8.45455 121.555 8.13068C121.374 7.80398 121.126 7.5483 120.814 7.36364C120.504 7.17898 120.156 7.08665 119.77 7.08665C119.477 7.08381 119.19 7.1321 118.909 7.23153C118.628 7.33097 118.393 7.45881 118.206 7.61506L117.409 7.51278L117.933 3.27273H122.246V3.98864H118.602L118.253 6.90767H118.295C118.489 6.74574 118.723 6.61364 118.999 6.51136C119.277 6.40909 119.571 6.35795 119.881 6.35795C120.395 6.35795 120.857 6.48153 121.266 6.72869C121.678 6.97585 122.003 7.31676 122.241 7.75142C122.483 8.18324 122.604 8.6804 122.604 9.2429C122.604 9.79403 122.483 10.2869 122.241 10.7216C122.003 11.1534 121.673 11.4943 121.253 11.7443C120.835 11.9943 120.358 12.1193 119.821 12.1193Z" fill="#4F4762"/>
</svg>
