<svg width="18" height="18" viewBox="0 0 18 18" fill="none" xmlns="http://www.w3.org/2000/svg">
<path d="M10.2974 2.63248L11.6174 5.27248C11.7974 5.63998 12.2774 5.99248 12.6824 6.05998L15.0749 6.45748C16.6049 6.71248 16.9649 7.82248 15.8624 8.91748L14.0024 10.7775C13.6874 11.0925 13.5149 11.7 13.6124 12.135L14.1449 14.4375C14.5649 16.26 13.5974 16.965 11.9849 16.0125L9.74243 14.685C9.33743 14.445 8.66993 14.445 8.25743 14.685L6.01493 16.0125C4.40993 16.965 3.43493 16.2525 3.85493 14.4375L4.38743 12.135C4.48493 11.7 4.31243 11.0925 3.99743 10.7775L2.13743 8.91748C1.04243 7.82248 1.39493 6.71248 2.92493 6.45748L5.31743 6.05998C5.71493 5.99248 6.19493 5.63998 6.37493 5.27248L7.69493 2.63248C8.41493 1.19998 9.58493 1.19998 10.2974 2.63248Z" fill="#FFCC00"/>
</svg>
