<svg width="55" height="55" viewBox="0 0 55 55" fill="none" xmlns="http://www.w3.org/2000/svg">
<path d="M39.4167 28.4166C33.3438 28.4166 28.4167 33.3438 28.4167 39.4167C28.4167 41.4792 28.9897 43.4271 30.0209 45.0771C31.923 48.2625 35.4063 50.4166 39.4167 50.4166C43.4272 50.4166 46.9334 48.2625 48.8126 45.0771C49.8209 43.4271 50.4167 41.4792 50.4167 39.4167C50.4167 33.3438 45.4897 28.4166 39.4167 28.4166ZM44.8709 37.9729L39.0042 43.3812C38.6834 43.6791 38.248 43.8396 37.8355 43.8396C37.4001 43.8396 36.9647 43.6791 36.6209 43.3354L33.9167 40.6312C33.2522 39.9667 33.2522 38.8667 33.9167 38.2021C34.5813 37.5375 35.6813 37.5375 36.3459 38.2021L37.8813 39.7375L42.5334 35.4291C43.2209 34.7875 44.3209 34.8333 44.9626 35.5208C45.6042 36.2312 45.5584 37.3312 44.8709 37.9729Z" fill="#8174A0"/>
<path opacity="0.4" d="M50.4166 19.9145C50.4166 22.6416 49.9812 25.1624 49.2249 27.4999C48.7437 29.0354 48.1249 30.502 47.3916 31.8541C45.3749 29.7228 42.5562 28.4166 39.4166 28.4166C33.3437 28.4166 28.4166 33.3437 28.4166 39.4166C28.4166 42.2354 29.4937 44.802 31.2353 46.7499C30.3874 47.1395 29.6082 47.4604 28.9207 47.6895C28.1416 47.9645 26.8583 47.9645 26.0791 47.6895C20.5562 45.8104 9.39575 38.9583 5.77492 27.4999C5.01867 25.1624 4.58325 22.6416 4.58325 19.9145C4.58325 12.8333 10.2895 7.10413 17.3249 7.10413C21.4728 7.10413 25.1853 9.12075 27.4999 12.2145C29.8145 9.12075 33.527 7.10413 37.6749 7.10413C44.7103 7.10413 50.4166 12.8333 50.4166 19.9145Z" fill="#8174A0"/>
</svg>
