<svg width="55" height="55" viewBox="0 0 55 55" fill="none" xmlns="http://www.w3.org/2000/svg">
<path d="M50.4166 13.0855V35.0396C50.4166 41.3646 45.2832 46.498 38.9582 46.498H16.0416C14.9874 46.498 13.9791 46.3605 12.9937 46.0855C11.5728 45.6959 11.1145 43.8855 12.1687 42.8313L36.5291 18.4709C37.0332 17.9667 37.7895 17.8521 38.4999 17.9896C39.2332 18.1271 40.0353 17.9209 40.6082 17.3709L46.4978 11.4584C48.652 9.30422 50.4166 10.0146 50.4166 13.0855Z" fill="#8174A0"/>
<path opacity="0.4" d="M33.5499 16.8667L9.55617 40.8604C8.45617 41.9604 6.62283 41.6854 5.8895 40.3104C5.04159 38.7521 4.58325 36.9417 4.58325 35.0396V13.0854C4.58325 10.0146 6.34784 9.30415 8.502 11.4583L14.4145 17.3937C15.3083 18.2646 16.7749 18.2646 17.6687 17.3937L25.8728 9.16665C26.7666 8.2729 28.2332 8.2729 29.127 9.16665L33.5728 13.6125C34.4437 14.5062 34.4437 15.9729 33.5499 16.8667Z" fill="#8174A0"/>
</svg>
