<svg width="55" height="55" viewBox="0 0 55 55" fill="none" xmlns="http://www.w3.org/2000/svg">
<path opacity="0.4" d="M50.4166 32.0834V38.9584C50.4166 42.7625 47.3458 45.8334 43.5416 45.8334H41.2499C41.2499 43.3125 39.1874 41.25 36.6666 41.25C34.1458 41.25 32.0833 43.3125 32.0833 45.8334H22.9166C22.9166 43.3125 20.8541 41.25 18.3333 41.25C15.8124 41.25 13.7499 43.3125 13.7499 45.8334H11.4583C7.65409 45.8334 4.58325 42.7625 4.58325 38.9584V32.0834H29.7916C32.3124 32.0834 34.3749 30.0209 34.3749 27.5V11.4584H38.5916C40.2416 11.4584 41.7541 12.3521 42.5791 13.773L46.4978 20.625H43.5416C42.2812 20.625 41.2499 21.6563 41.2499 22.9167V29.7917C41.2499 31.0521 42.2812 32.0834 43.5416 32.0834H50.4166Z" fill="#8174A0"/>
<path d="M18.3333 50.4167C20.8646 50.4167 22.9167 48.3646 22.9167 45.8333C22.9167 43.302 20.8646 41.25 18.3333 41.25C15.802 41.25 13.75 43.302 13.75 45.8333C13.75 48.3646 15.802 50.4167 18.3333 50.4167Z" fill="#8174A0"/>
<path d="M36.6666 50.4167C39.1979 50.4167 41.2499 48.3646 41.2499 45.8333C41.2499 43.302 39.1979 41.25 36.6666 41.25C34.1353 41.25 32.0833 43.302 32.0833 45.8333C32.0833 48.3646 34.1353 50.4167 36.6666 50.4167Z" fill="#8174A0"/>
<path d="M50.4167 28.7147V32.0833H43.5417C42.2813 32.0833 41.25 31.0521 41.25 29.7917V22.9167C41.25 21.6562 42.2813 20.625 43.5417 20.625H46.4979L49.8208 26.4458C50.2104 27.1333 50.4167 27.9126 50.4167 28.7147Z" fill="#8174A0"/>
<path d="M32.0835 4.58337H13.7502C9.28141 4.58337 5.56895 7.79171 4.76687 12.0313H16.0418C16.9814 12.0313 17.7606 12.8105 17.7606 13.75C17.7606 14.6896 16.9814 15.4688 16.0418 15.4688H4.5835V18.9063H11.4585C12.3981 18.9063 13.1772 19.6855 13.1772 20.625C13.1772 21.5646 12.3981 22.3438 11.4585 22.3438H4.5835V25.7813H6.87516C7.81475 25.7813 8.59391 26.5605 8.59391 27.5C8.59391 28.4396 7.81475 29.2188 6.87516 29.2188H4.5835V32.0834H29.7918C32.3127 32.0834 34.3752 30.0209 34.3752 27.5V6.87504C34.3752 5.61462 33.3439 4.58337 32.0835 4.58337Z" fill="#8174A0"/>
<path d="M4.76679 12.0312H2.29175C1.35216 12.0312 0.572998 12.8104 0.572998 13.75C0.572998 14.6896 1.35216 15.4688 2.29175 15.4688H4.58342V13.75C4.58342 13.1542 4.6522 12.5813 4.76679 12.0312Z" fill="#8174A0"/>
<path d="M2.29175 18.9062C1.35216 18.9062 0.572998 19.6854 0.572998 20.625C0.572998 21.5646 1.35216 22.3438 2.29175 22.3438H4.58342V18.9062H2.29175Z" fill="#8174A0"/>
<path d="M2.29175 25.7812C1.35216 25.7812 0.572998 26.5604 0.572998 27.5C0.572998 28.4396 1.35216 29.2188 2.29175 29.2188H4.58342V25.7812H2.29175Z" fill="#8174A0"/>
</svg>
